<?xml version="1.0" encoding="utf-8" standalone="no"?>
<!DOCTYPE svg PUBLIC "-//W3C//DTD SVG 1.1//EN"
  "http://www.w3.org/Graphics/SVG/1.1/DTD/svg11.dtd">
<svg xmlns:xlink="http://www.w3.org/1999/xlink" width="740.16pt" height="740.16pt" viewBox="0 0 740.16 740.16" xmlns="http://www.w3.org/2000/svg" version="1.1">
 <metadata>
  <rdf:RDF xmlns:dc="http://purl.org/dc/elements/1.1/" xmlns:cc="http://creativecommons.org/ns#" xmlns:rdf="http://www.w3.org/1999/02/22-rdf-syntax-ns#">
   <cc:Work>
    <dc:type rdf:resource="http://purl.org/dc/dcmitype/StillImage"/>
    <dc:date>2026-04-30T00:51:53.216120</dc:date>
    <dc:format>image/svg+xml</dc:format>
    <dc:creator>
     <cc:Agent>
      <dc:title>Matplotlib v3.10.3, https://matplotlib.org/</dc:title>
     </cc:Agent>
    </dc:creator>
   </cc:Work>
  </rdf:RDF>
 </metadata>
 <defs>
  <style type="text/css">*{stroke-linejoin: round; stroke-linecap: butt}</style>
 </defs>
 <g id="figure_1">
  <g id="patch_1">
   <path d="M 0 740.16
L 740.16 740.16
L 740.16 0
L 0 0
L 0 740.16
z
" style="fill: none"/>
  </g>
  <g id="axes_1">
   <g id="patch_2">
    <path d="M 67.7952 738.72
L 672.3648 738.72
Q 738.72 738.72 738.72 672.3648
L 738.72 67.7952
Q 738.72 1.44 672.3648 1.44
L 67.7952 1.44
Q 1.44 1.44 1.44 67.7952
L 1.44 672.3648
Q 1.44 738.72 67.7952 738.72
z
" clip-path="url(#p690360c824)" style="fill: #13203a"/>
   </g>
   <g id="patch_3">
    <path d="M 67.7952 738.72
L 672.3648 738.72
Q 738.72 738.72 738.72 672.3648
L 738.72 67.7952
Q 738.72 1.44 672.3648 1.44
L 67.7952 1.44
Q 1.44 1.44 1.44 67.7952
L 1.44 672.3648
Q 1.44 738.72 67.7952 738.72
z
" clip-path="url(#p690360c824)" style="fill: #0b1020; opacity: 0.3"/>
   </g>
   <g id="line2d_1">
    <path d="M 30.9312 476.9856
L 372.639295 477.019209
L 377.74239 477.285167
L 382.82533 477.809633
L 387.888722 478.584831
L 392.933171 479.602987
L 397.959284 480.856327
L 402.967666 482.337075
L 407.958925 484.037458
L 412.933666 485.9497
L 417.892495 488.066027
L 422.836018 490.378663
L 427.764843 492.879836
L 432.679573 495.561769
L 437.580817 498.416688
L 444.908721 503.006409
L 452.209688 507.941616
L 459.485765 513.19607
L 466.738997 518.743532
L 473.971431 524.557761
L 481.185111 530.612519
L 490.777716 539.014333
L 500.345468 547.734908
L 512.277597 558.989131
L 526.568231 572.852318
L 569.415583 614.756753
L 581.353205 625.940518
L 590.926716 634.587234
L 600.526292 642.899639
L 607.745996 648.877136
L 614.985135 654.605359
L 622.245755 660.058067
L 629.529901 665.209021
L 636.83962 670.031981
L 644.176957 674.500709
L 649.084868 677.270107
L 654.00657 679.862631
L 658.942668 682.270508
L 663.893769 684.485961
L 668.860478 686.501218
L 673.843402 688.308502
L 678.843146 689.900039
L 683.860318 691.268055
L 688.895524 692.404775
L 693.949368 693.302424
L 699.022458 693.953227
L 704.1154 694.349411
L 709.2288 694.4832
L 709.2288 694.4832
" clip-path="url(#p690360c824)" style="fill: none; stroke: #76b900; stroke-opacity: 0.088; stroke-width: 6.12; stroke-linecap: round"/>
   </g>
   <g id="line2d_2">
    <path d="M 30.9312 446.441143
L 375.1934 446.536706
L 380.286342 446.819695
L 385.359432 447.284554
L 390.413276 447.925732
L 395.448482 448.737675
L 400.465654 449.714829
L 405.465398 450.851642
L 410.448322 452.142559
L 417.892495 454.355733
L 425.30223 456.884406
L 432.679573 459.709835
L 440.026571 462.813277
L 447.345268 466.17599
L 454.637712 469.779232
L 461.905946 473.60426
L 469.152018 477.632331
L 478.782508 483.286544
L 488.382084 489.223976
L 497.955595 495.400201
L 509.893217 503.388605
L 524.187943 513.253396
L 574.18726 548.075361
L 586.137006 555.952698
L 595.722943 562.01508
L 605.337369 567.816456
L 612.569803 571.969477
L 619.823035 575.93195
L 627.099112 579.685131
L 634.400079 583.210279
L 641.727983 586.488651
L 649.084868 589.501505
L 656.472782 592.230098
L 663.893769 594.655687
L 671.349875 596.75953
L 676.341134 597.974089
L 681.349516 599.031766
L 686.375629 599.927009
L 691.420078 600.654264
L 696.48347 601.207977
L 701.56641 601.582595
L 706.669505 601.772565
L 709.2288 601.796571
L 709.2288 601.796571
" clip-path="url(#p690360c824)" style="fill: none; stroke: #76b900; stroke-opacity: 0.088; stroke-width: 6.12; stroke-linecap: round"/>
   </g>
   <g id="line2d_3">
    <path d="M 30.9312 293.718857
L 375.1934 293.623294
L 380.286342 293.340305
L 385.359432 292.875446
L 390.413276 292.234268
L 395.448482 291.422325
L 400.465654 290.445171
L 405.465398 289.308358
L 410.448322 288.017441
L 417.892495 285.804267
L 425.30223 283.275594
L 432.679573 280.450165
L 440.026571 277.346723
L 447.345268 273.98401
L 454.637712 270.380768
L 461.905946 266.55574
L 469.152018 262.527669
L 478.782508 256.873456
L 488.382084 250.936024
L 497.955595 244.759799
L 509.893217 236.771395
L 524.187943 226.906604
L 574.18726 192.084639
L 586.137006 184.207302
L 595.722943 178.14492
L 605.337369 172.343544
L 612.569803 168.190523
L 619.823035 164.22805
L 627.099112 160.474869
L 634.400079 156.949721
L 641.727983 153.671349
L 649.084868 150.658495
L 656.472782 147.929902
L 663.893769 145.504313
L 671.349875 143.40047
L 676.341134 142.185911
L 681.349516 141.128234
L 686.375629 140.232991
L 691.420078 139.505736
L 696.48347 138.952023
L 701.56641 138.577405
L 706.669505 138.387435
L 709.2288 138.363429
L 709.2288 138.363429
" clip-path="url(#p690360c824)" style="fill: none; stroke: #76b900; stroke-opacity: 0.088; stroke-width: 6.12; stroke-linecap: round"/>
   </g>
   <g id="line2d_4">
    <path d="M 30.9312 263.1744
L 372.639295 263.140791
L 377.74239 262.874833
L 382.82533 262.350367
L 387.888722 261.575169
L 392.933171 260.557013
L 397.959284 259.303673
L 402.967666 257.822925
L 407.958925 256.122542
L 412.933666 254.2103
L 417.892495 252.093973
L 422.836018 249.781337
L 427.764843 247.280164
L 432.679573 244.598231
L 437.580817 241.743312
L 444.908721 237.153591
L 452.209688 232.218384
L 459.485765 226.96393
L 466.738997 221.416468
L 473.971431 215.602239
L 481.185111 209.547481
L 490.777716 201.145667
L 500.345468 192.425092
L 512.277597 181.170869
L 526.568231 167.307682
L 569.415583 125.403247
L 581.353205 114.219482
L 590.926716 105.572766
L 600.526292 97.260361
L 607.745996 91.282864
L 614.985135 85.554641
L 622.245755 80.101933
L 629.529901 74.950979
L 636.83962 70.128019
L 644.176957 65.659291
L 649.084868 62.889893
L 654.00657 60.297369
L 658.942668 57.889492
L 663.893769 55.674039
L 668.860478 53.658782
L 673.843402 51.851498
L 678.843146 50.259961
L 683.860318 48.891945
L 688.895524 47.755225
L 693.949368 46.857576
L 699.022458 46.206773
L 704.1154 45.810589
L 709.2288 45.6768
L 709.2288 45.6768
" clip-path="url(#p690360c824)" style="fill: none; stroke: #76b900; stroke-opacity: 0.088; stroke-width: 6.12; stroke-linecap: round"/>
   </g>
   <g id="line2d_5">
    <path d="M 30.9312 476.9856
L 372.639295 477.019209
L 377.74239 477.285167
L 382.82533 477.809633
L 387.888722 478.584831
L 392.933171 479.602987
L 397.959284 480.856327
L 402.967666 482.337075
L 407.958925 484.037458
L 412.933666 485.9497
L 417.892495 488.066027
L 422.836018 490.378663
L 427.764843 492.879836
L 432.679573 495.561769
L 437.580817 498.416688
L 444.908721 503.006409
L 452.209688 507.941616
L 459.485765 513.19607
L 466.738997 518.743532
L 473.971431 524.557761
L 481.185111 530.612519
L 490.777716 539.014333
L 500.345468 547.734908
L 512.277597 558.989131
L 526.568231 572.852318
L 569.415583 614.756753
L 581.353205 625.940518
L 590.926716 634.587234
L 600.526292 642.899639
L 607.745996 648.877136
L 614.985135 654.605359
L 622.245755 660.058067
L 629.529901 665.209021
L 636.83962 670.031981
L 644.176957 674.500709
L 649.084868 677.270107
L 654.00657 679.862631
L 658.942668 682.270508
L 663.893769 684.485961
L 668.860478 686.501218
L 673.843402 688.308502
L 678.843146 689.900039
L 683.860318 691.268055
L 688.895524 692.404775
L 693.949368 693.302424
L 699.022458 693.953227
L 704.1154 694.349411
L 709.2288 694.4832
L 709.2288 694.4832
" clip-path="url(#p690360c824)" style="fill: none; stroke: #76b900; stroke-opacity: 0.176; stroke-width: 3.42; stroke-linecap: round"/>
   </g>
   <g id="line2d_6">
    <path d="M 30.9312 446.441143
L 375.1934 446.536706
L 380.286342 446.819695
L 385.359432 447.284554
L 390.413276 447.925732
L 395.448482 448.737675
L 400.465654 449.714829
L 405.465398 450.851642
L 410.448322 452.142559
L 417.892495 454.355733
L 425.30223 456.884406
L 432.679573 459.709835
L 440.026571 462.813277
L 447.345268 466.17599
L 454.637712 469.779232
L 461.905946 473.60426
L 469.152018 477.632331
L 478.782508 483.286544
L 488.382084 489.223976
L 497.955595 495.400201
L 509.893217 503.388605
L 524.187943 513.253396
L 574.18726 548.075361
L 586.137006 555.952698
L 595.722943 562.01508
L 605.337369 567.816456
L 612.569803 571.969477
L 619.823035 575.93195
L 627.099112 579.685131
L 634.400079 583.210279
L 641.727983 586.488651
L 649.084868 589.501505
L 656.472782 592.230098
L 663.893769 594.655687
L 671.349875 596.75953
L 676.341134 597.974089
L 681.349516 599.031766
L 686.375629 599.927009
L 691.420078 600.654264
L 696.48347 601.207977
L 701.56641 601.582595
L 706.669505 601.772565
L 709.2288 601.796571
L 709.2288 601.796571
" clip-path="url(#p690360c824)" style="fill: none; stroke: #76b900; stroke-opacity: 0.176; stroke-width: 3.42; stroke-linecap: round"/>
   </g>
   <g id="line2d_7">
    <path d="M 30.9312 293.718857
L 375.1934 293.623294
L 380.286342 293.340305
L 385.359432 292.875446
L 390.413276 292.234268
L 395.448482 291.422325
L 400.465654 290.445171
L 405.465398 289.308358
L 410.448322 288.017441
L 417.892495 285.804267
L 425.30223 283.275594
L 432.679573 280.450165
L 440.026571 277.346723
L 447.345268 273.98401
L 454.637712 270.380768
L 461.905946 266.55574
L 469.152018 262.527669
L 478.782508 256.873456
L 488.382084 250.936024
L 497.955595 244.759799
L 509.893217 236.771395
L 524.187943 226.906604
L 574.18726 192.084639
L 586.137006 184.207302
L 595.722943 178.14492
L 605.337369 172.343544
L 612.569803 168.190523
L 619.823035 164.22805
L 627.099112 160.474869
L 634.400079 156.949721
L 641.727983 153.671349
L 649.084868 150.658495
L 656.472782 147.929902
L 663.893769 145.504313
L 671.349875 143.40047
L 676.341134 142.185911
L 681.349516 141.128234
L 686.375629 140.232991
L 691.420078 139.505736
L 696.48347 138.952023
L 701.56641 138.577405
L 706.669505 138.387435
L 709.2288 138.363429
L 709.2288 138.363429
" clip-path="url(#p690360c824)" style="fill: none; stroke: #76b900; stroke-opacity: 0.176; stroke-width: 3.42; stroke-linecap: round"/>
   </g>
   <g id="line2d_8">
    <path d="M 30.9312 263.1744
L 372.639295 263.140791
L 377.74239 262.874833
L 382.82533 262.350367
L 387.888722 261.575169
L 392.933171 260.557013
L 397.959284 259.303673
L 402.967666 257.822925
L 407.958925 256.122542
L 412.933666 254.2103
L 417.892495 252.093973
L 422.836018 249.781337
L 427.764843 247.280164
L 432.679573 244.598231
L 437.580817 241.743312
L 444.908721 237.153591
L 452.209688 232.218384
L 459.485765 226.96393
L 466.738997 221.416468
L 473.971431 215.602239
L 481.185111 209.547481
L 490.777716 201.145667
L 500.345468 192.425092
L 512.277597 181.170869
L 526.568231 167.307682
L 569.415583 125.403247
L 581.353205 114.219482
L 590.926716 105.572766
L 600.526292 97.260361
L 607.745996 91.282864
L 614.985135 85.554641
L 622.245755 80.101933
L 629.529901 74.950979
L 636.83962 70.128019
L 644.176957 65.659291
L 649.084868 62.889893
L 654.00657 60.297369
L 658.942668 57.889492
L 663.893769 55.674039
L 668.860478 53.658782
L 673.843402 51.851498
L 678.843146 50.259961
L 683.860318 48.891945
L 688.895524 47.755225
L 693.949368 46.857576
L 699.022458 46.206773
L 704.1154 45.810589
L 709.2288 45.6768
L 709.2288 45.6768
" clip-path="url(#p690360c824)" style="fill: none; stroke: #76b900; stroke-opacity: 0.176; stroke-width: 3.42; stroke-linecap: round"/>
   </g>
   <g id="patch_4">
    <path d="M 30.9312 486.275328
C 33.394865 486.275328 35.757956 485.296504 37.50003 483.55443
C 39.242104 481.812356 40.220928 479.449265 40.220928 476.9856
C 40.220928 474.521935 39.242104 472.158844 37.50003 470.41677
C 35.757956 468.674696 33.394865 467.695872 30.9312 467.695872
C 28.467535 467.695872 26.104444 468.674696 24.36237 470.41677
C 22.620296 472.158844 21.641472 474.521935 21.641472 476.9856
C 21.641472 479.449265 22.620296 481.812356 24.36237 483.55443
C 26.104444 485.296504 28.467535 486.275328 30.9312 486.275328
z
" clip-path="url(#p690360c824)" style="fill: #76b900; opacity: 0.1375"/>
   </g>
   <g id="patch_5">
    <path d="M 709.2288 703.772928
C 711.692465 703.772928 714.055556 702.794104 715.79763 701.05203
C 717.539704 699.309956 718.518528 696.946865 718.518528 694.4832
C 718.518528 692.019535 717.539704 689.656444 715.79763 687.91437
C 714.055556 686.172296 711.692465 685.193472 709.2288 685.193472
C 706.765135 685.193472 704.402044 686.172296 702.65997 687.91437
C 700.917896 689.656444 699.939072 692.019535 699.939072 694.4832
C 699.939072 696.946865 700.917896 699.309956 702.65997 701.05203
C 704.402044 702.794104 706.765135 703.772928 709.2288 703.772928
z
" clip-path="url(#p690360c824)" style="fill: #76b900; opacity: 0.1375"/>
   </g>
   <g id="patch_6">
    <path d="M 30.9312 455.730871
C 33.394865 455.730871 35.757956 454.752047 37.50003 453.009973
C 39.242104 451.267899 40.220928 448.904808 40.220928 446.441143
C 40.220928 443.977478 39.242104 441.614387 37.50003 439.872313
C 35.757956 438.130239 33.394865 437.151415 30.9312 437.151415
C 28.467535 437.151415 26.104444 438.130239 24.36237 439.872313
C 22.620296 441.614387 21.641472 443.977478 21.641472 446.441143
C 21.641472 448.904808 22.620296 451.267899 24.36237 453.009973
C 26.104444 454.752047 28.467535 455.730871 30.9312 455.730871
z
" clip-path="url(#p690360c824)" style="fill: #76b900; opacity: 0.1375"/>
   </g>
   <g id="patch_7">
    <path d="M 709.2288 611.086299
C 711.692465 611.086299 714.055556 610.107475 715.79763 608.365401
C 717.539704 606.623327 718.518528 604.260236 718.518528 601.796571
C 718.518528 599.332907 717.539704 596.969816 715.79763 595.227742
C 714.055556 593.485668 711.692465 592.506843 709.2288 592.506843
C 706.765135 592.506843 704.402044 593.485668 702.65997 595.227742
C 700.917896 596.969816 699.939072 599.332907 699.939072 601.796571
C 699.939072 604.260236 700.917896 606.623327 702.65997 608.365401
C 704.402044 610.107475 706.765135 611.086299 709.2288 611.086299
z
" clip-path="url(#p690360c824)" style="fill: #76b900; opacity: 0.1375"/>
   </g>
   <g id="patch_8">
    <path d="M 30.9312 303.008585
C 33.394865 303.008585 35.757956 302.029761 37.50003 300.287687
C 39.242104 298.545613 40.220928 296.182522 40.220928 293.718857
C 40.220928 291.255192 39.242104 288.892101 37.50003 287.150027
C 35.757956 285.407953 33.394865 284.429129 30.9312 284.429129
C 28.467535 284.429129 26.104444 285.407953 24.36237 287.150027
C 22.620296 288.892101 21.641472 291.255192 21.641472 293.718857
C 21.641472 296.182522 22.620296 298.545613 24.36237 300.287687
C 26.104444 302.029761 28.467535 303.008585 30.9312 303.008585
z
" clip-path="url(#p690360c824)" style="fill: #76b900; opacity: 0.1375"/>
   </g>
   <g id="patch_9">
    <path d="M 709.2288 147.653157
C 711.692465 147.653157 714.055556 146.674332 715.79763 144.932258
C 717.539704 143.190184 718.518528 140.827093 718.518528 138.363429
C 718.518528 135.899764 717.539704 133.536673 715.79763 131.794599
C 714.055556 130.052525 711.692465 129.073701 709.2288 129.073701
C 706.765135 129.073701 704.402044 130.052525 702.65997 131.794599
C 700.917896 133.536673 699.939072 135.899764 699.939072 138.363429
C 699.939072 140.827093 700.917896 143.190184 702.65997 144.932258
C 704.402044 146.674332 706.765135 147.653157 709.2288 147.653157
z
" clip-path="url(#p690360c824)" style="fill: #76b900; opacity: 0.1375"/>
   </g>
   <g id="patch_10">
    <path d="M 30.9312 272.464128
C 33.394865 272.464128 35.757956 271.485304 37.50003 269.74323
C 39.242104 268.001156 40.220928 265.638065 40.220928 263.1744
C 40.220928 260.710735 39.242104 258.347644 37.50003 256.60557
C 35.757956 254.863496 33.394865 253.884672 30.9312 253.884672
C 28.467535 253.884672 26.104444 254.863496 24.36237 256.60557
C 22.620296 258.347644 21.641472 260.710735 21.641472 263.1744
C 21.641472 265.638065 22.620296 268.001156 24.36237 269.74323
C 26.104444 271.485304 28.467535 272.464128 30.9312 272.464128
z
" clip-path="url(#p690360c824)" style="fill: #76b900; opacity: 0.1375"/>
   </g>
   <g id="patch_11">
    <path d="M 709.2288 54.966528
C 711.692465 54.966528 714.055556 53.987704 715.79763 52.24563
C 717.539704 50.503556 718.518528 48.140465 718.518528 45.6768
C 718.518528 43.213135 717.539704 40.850044 715.79763 39.10797
C 714.055556 37.365896 711.692465 36.387072 709.2288 36.387072
C 706.765135 36.387072 704.402044 37.365896 702.65997 39.10797
C 700.917896 40.850044 699.939072 43.213135 699.939072 45.6768
C 699.939072 48.140465 700.917896 50.503556 702.65997 52.24563
C 704.402044 53.987704 706.765135 54.966528 709.2288 54.966528
z
" clip-path="url(#p690360c824)" style="fill: #76b900; opacity: 0.1375"/>
   </g>
   <g id="line2d_9">
    <path d="M 30.9312 476.9856
L 372.639295 477.019209
L 377.74239 477.285167
L 382.82533 477.809633
L 387.888722 478.584831
L 392.933171 479.602987
L 397.959284 480.856327
L 402.967666 482.337075
L 407.958925 484.037458
L 412.933666 485.9497
L 417.892495 488.066027
L 422.836018 490.378663
L 427.764843 492.879836
L 432.679573 495.561769
L 437.580817 498.416688
L 444.908721 503.006409
L 452.209688 507.941616
L 459.485765 513.19607
L 466.738997 518.743532
L 473.971431 524.557761
L 481.185111 530.612519
L 490.777716 539.014333
L 500.345468 547.734908
L 512.277597 558.989131
L 526.568231 572.852318
L 569.415583 614.756753
L 581.353205 625.940518
L 590.926716 634.587234
L 600.526292 642.899639
L 607.745996 648.877136
L 614.985135 654.605359
L 622.245755 660.058067
L 629.529901 665.209021
L 636.83962 670.031981
L 644.176957 674.500709
L 649.084868 677.270107
L 654.00657 679.862631
L 658.942668 682.270508
L 663.893769 684.485961
L 668.860478 686.501218
L 673.843402 688.308502
L 678.843146 689.900039
L 683.860318 691.268055
L 688.895524 692.404775
L 693.949368 693.302424
L 699.022458 693.953227
L 704.1154 694.349411
L 709.2288 694.4832
L 709.2288 694.4832
" clip-path="url(#p690360c824)" style="fill: none; stroke: #76b900; stroke-opacity: 0.55; stroke-width: 1.8; stroke-linecap: round"/>
   </g>
   <g id="line2d_10">
    <path d="M 30.9312 446.441143
L 375.1934 446.536706
L 380.286342 446.819695
L 385.359432 447.284554
L 390.413276 447.925732
L 395.448482 448.737675
L 400.465654 449.714829
L 405.465398 450.851642
L 410.448322 452.142559
L 417.892495 454.355733
L 425.30223 456.884406
L 432.679573 459.709835
L 440.026571 462.813277
L 447.345268 466.17599
L 454.637712 469.779232
L 461.905946 473.60426
L 469.152018 477.632331
L 478.782508 483.286544
L 488.382084 489.223976
L 497.955595 495.400201
L 509.893217 503.388605
L 524.187943 513.253396
L 574.18726 548.075361
L 586.137006 555.952698
L 595.722943 562.01508
L 605.337369 567.816456
L 612.569803 571.969477
L 619.823035 575.93195
L 627.099112 579.685131
L 634.400079 583.210279
L 641.727983 586.488651
L 649.084868 589.501505
L 656.472782 592.230098
L 663.893769 594.655687
L 671.349875 596.75953
L 676.341134 597.974089
L 681.349516 599.031766
L 686.375629 599.927009
L 691.420078 600.654264
L 696.48347 601.207977
L 701.56641 601.582595
L 706.669505 601.772565
L 709.2288 601.796571
L 709.2288 601.796571
" clip-path="url(#p690360c824)" style="fill: none; stroke: #76b900; stroke-opacity: 0.55; stroke-width: 1.8; stroke-linecap: round"/>
   </g>
   <g id="line2d_11">
    <path d="M 30.9312 293.718857
L 375.1934 293.623294
L 380.286342 293.340305
L 385.359432 292.875446
L 390.413276 292.234268
L 395.448482 291.422325
L 400.465654 290.445171
L 405.465398 289.308358
L 410.448322 288.017441
L 417.892495 285.804267
L 425.30223 283.275594
L 432.679573 280.450165
L 440.026571 277.346723
L 447.345268 273.98401
L 454.637712 270.380768
L 461.905946 266.55574
L 469.152018 262.527669
L 478.782508 256.873456
L 488.382084 250.936024
L 497.955595 244.759799
L 509.893217 236.771395
L 524.187943 226.906604
L 574.18726 192.084639
L 586.137006 184.207302
L 595.722943 178.14492
L 605.337369 172.343544
L 612.569803 168.190523
L 619.823035 164.22805
L 627.099112 160.474869
L 634.400079 156.949721
L 641.727983 153.671349
L 649.084868 150.658495
L 656.472782 147.929902
L 663.893769 145.504313
L 671.349875 143.40047
L 676.341134 142.185911
L 681.349516 141.128234
L 686.375629 140.232991
L 691.420078 139.505736
L 696.48347 138.952023
L 701.56641 138.577405
L 706.669505 138.387435
L 709.2288 138.363429
L 709.2288 138.363429
" clip-path="url(#p690360c824)" style="fill: none; stroke: #76b900; stroke-opacity: 0.55; stroke-width: 1.8; stroke-linecap: round"/>
   </g>
   <g id="line2d_12">
    <path d="M 30.9312 263.1744
L 372.639295 263.140791
L 377.74239 262.874833
L 382.82533 262.350367
L 387.888722 261.575169
L 392.933171 260.557013
L 397.959284 259.303673
L 402.967666 257.822925
L 407.958925 256.122542
L 412.933666 254.2103
L 417.892495 252.093973
L 422.836018 249.781337
L 427.764843 247.280164
L 432.679573 244.598231
L 437.580817 241.743312
L 444.908721 237.153591
L 452.209688 232.218384
L 459.485765 226.96393
L 466.738997 221.416468
L 473.971431 215.602239
L 481.185111 209.547481
L 490.777716 201.145667
L 500.345468 192.425092
L 512.277597 181.170869
L 526.568231 167.307682
L 569.415583 125.403247
L 581.353205 114.219482
L 590.926716 105.572766
L 600.526292 97.260361
L 607.745996 91.282864
L 614.985135 85.554641
L 622.245755 80.101933
L 629.529901 74.950979
L 636.83962 70.128019
L 644.176957 65.659291
L 649.084868 62.889893
L 654.00657 60.297369
L 658.942668 57.889492
L 663.893769 55.674039
L 668.860478 53.658782
L 673.843402 51.851498
L 678.843146 50.259961
L 683.860318 48.891945
L 688.895524 47.755225
L 693.949368 46.857576
L 699.022458 46.206773
L 704.1154 45.810589
L 709.2288 45.6768
L 709.2288 45.6768
" clip-path="url(#p690360c824)" style="fill: none; stroke: #76b900; stroke-opacity: 0.55; stroke-width: 1.8; stroke-linecap: round"/>
   </g>
   <g id="patch_12">
    <path d="M 30.9312 482.14656
C 32.299903 482.14656 33.612731 481.602769 34.58055 480.63495
C 35.548369 479.667131 36.09216 478.354303 36.09216 476.9856
C 36.09216 475.616897 35.548369 474.304069 34.58055 473.33625
C 33.612731 472.368431 32.299903 471.82464 30.9312 471.82464
C 29.562497 471.82464 28.249669 472.368431 27.28185 473.33625
C 26.314031 474.304069 25.77024 475.616897 25.77024 476.9856
C 25.77024 478.354303 26.314031 479.667131 27.28185 480.63495
C 28.249669 481.602769 29.562497 482.14656 30.9312 482.14656
z
" clip-path="url(#p690360c824)" style="fill: #76b900; opacity: 0.55; stroke: #0a0d18; stroke-width: 1.2; stroke-linejoin: miter"/>
   </g>
   <g id="patch_13">
    <path d="M 709.2288 699.64416
C 710.597503 699.64416 711.910331 699.100369 712.87815 698.13255
C 713.845969 697.164731 714.38976 695.851903 714.38976 694.4832
C 714.38976 693.114497 713.845969 691.801669 712.87815 690.83385
C 711.910331 689.866031 710.597503 689.32224 709.2288 689.32224
C 707.860097 689.32224 706.547269 689.866031 705.57945 690.83385
C 704.611631 691.801669 704.06784 693.114497 704.06784 694.4832
C 704.06784 695.851903 704.611631 697.164731 705.57945 698.13255
C 706.547269 699.100369 707.860097 699.64416 709.2288 699.64416
z
" clip-path="url(#p690360c824)" style="fill: #76b900; opacity: 0.55; stroke: #0a0d18; stroke-width: 1.2; stroke-linejoin: miter"/>
   </g>
   <g id="patch_14">
    <path d="M 30.9312 451.602103
C 32.299903 451.602103 33.612731 451.058312 34.58055 450.090493
C 35.548369 449.122674 36.09216 447.809845 36.09216 446.441143
C 36.09216 445.07244 35.548369 443.759612 34.58055 442.791793
C 33.612731 441.823974 32.299903 441.280183 30.9312 441.280183
C 29.562497 441.280183 28.249669 441.823974 27.28185 442.791793
C 26.314031 443.759612 25.77024 445.07244 25.77024 446.441143
C 25.77024 447.809845 26.314031 449.122674 27.28185 450.090493
C 28.249669 451.058312 29.562497 451.602103 30.9312 451.602103
z
" clip-path="url(#p690360c824)" style="fill: #76b900; opacity: 0.55; stroke: #0a0d18; stroke-width: 1.2; stroke-linejoin: miter"/>
   </g>
   <g id="patch_15">
    <path d="M 709.2288 606.957531
C 710.597503 606.957531 711.910331 606.41374 712.87815 605.445921
C 713.845969 604.478102 714.38976 603.165274 714.38976 601.796571
C 714.38976 600.427869 713.845969 599.11504 712.87815 598.147222
C 711.910331 597.179403 710.597503 596.635611 709.2288 596.635611
C 707.860097 596.635611 706.547269 597.179403 705.57945 598.147222
C 704.611631 599.11504 704.06784 600.427869 704.06784 601.796571
C 704.06784 603.165274 704.611631 604.478102 705.57945 605.445921
C 706.547269 606.41374 707.860097 606.957531 709.2288 606.957531
z
" clip-path="url(#p690360c824)" style="fill: #76b900; opacity: 0.55; stroke: #0a0d18; stroke-width: 1.2; stroke-linejoin: miter"/>
   </g>
   <g id="patch_16">
    <path d="M 30.9312 298.879817
C 32.299903 298.879817 33.612731 298.336026 34.58055 297.368207
C 35.548369 296.400388 36.09216 295.08756 36.09216 293.718857
C 36.09216 292.350155 35.548369 291.037326 34.58055 290.069507
C 33.612731 289.101688 32.299903 288.557897 30.9312 288.557897
C 29.562497 288.557897 28.249669 289.101688 27.28185 290.069507
C 26.314031 291.037326 25.77024 292.350155 25.77024 293.718857
C 25.77024 295.08756 26.314031 296.400388 27.28185 297.368207
C 28.249669 298.336026 29.562497 298.879817 30.9312 298.879817
z
" clip-path="url(#p690360c824)" style="fill: #76b900; opacity: 0.55; stroke: #0a0d18; stroke-width: 1.2; stroke-linejoin: miter"/>
   </g>
   <g id="patch_17">
    <path d="M 709.2288 143.524389
C 710.597503 143.524389 711.910331 142.980597 712.87815 142.012778
C 713.845969 141.04496 714.38976 139.732131 714.38976 138.363429
C 714.38976 136.994726 713.845969 135.681898 712.87815 134.714079
C 711.910331 133.74626 710.597503 133.202469 709.2288 133.202469
C 707.860097 133.202469 706.547269 133.74626 705.57945 134.714079
C 704.611631 135.681898 704.06784 136.994726 704.06784 138.363429
C 704.06784 139.732131 704.611631 141.04496 705.57945 142.012778
C 706.547269 142.980597 707.860097 143.524389 709.2288 143.524389
z
" clip-path="url(#p690360c824)" style="fill: #76b900; opacity: 0.55; stroke: #0a0d18; stroke-width: 1.2; stroke-linejoin: miter"/>
   </g>
   <g id="patch_18">
    <path d="M 30.9312 268.33536
C 32.299903 268.33536 33.612731 267.791569 34.58055 266.82375
C 35.548369 265.855931 36.09216 264.543103 36.09216 263.1744
C 36.09216 261.805697 35.548369 260.492869 34.58055 259.52505
C 33.612731 258.557231 32.299903 258.01344 30.9312 258.01344
C 29.562497 258.01344 28.249669 258.557231 27.28185 259.52505
C 26.314031 260.492869 25.77024 261.805697 25.77024 263.1744
C 25.77024 264.543103 26.314031 265.855931 27.28185 266.82375
C 28.249669 267.791569 29.562497 268.33536 30.9312 268.33536
z
" clip-path="url(#p690360c824)" style="fill: #76b900; opacity: 0.55; stroke: #0a0d18; stroke-width: 1.2; stroke-linejoin: miter"/>
   </g>
   <g id="patch_19">
    <path d="M 709.2288 50.83776
C 710.597503 50.83776 711.910331 50.293969 712.87815 49.32615
C 713.845969 48.358331 714.38976 47.045503 714.38976 45.6768
C 714.38976 44.308097 713.845969 42.995269 712.87815 42.02745
C 711.910331 41.059631 710.597503 40.51584 709.2288 40.51584
C 707.860097 40.51584 706.547269 41.059631 705.57945 42.02745
C 704.611631 42.995269 704.06784 44.308097 704.06784 45.6768
C 704.06784 47.045503 704.611631 48.358331 705.57945 49.32615
C 706.547269 50.293969 707.860097 50.83776 709.2288 50.83776
z
" clip-path="url(#p690360c824)" style="fill: #76b900; opacity: 0.55; stroke: #0a0d18; stroke-width: 1.2; stroke-linejoin: miter"/>
   </g>
   <g id="line2d_13">
    <path d="M 30.9312 415.896686
L 375.1934 415.954024
L 382.82533 416.249843
L 390.413276 416.787439
L 397.959284 417.555569
L 405.465398 418.542985
L 412.933666 419.738443
L 420.366132 421.130697
L 427.764843 422.708501
L 435.131843 424.46061
L 444.908721 427.048461
L 454.637712 429.899539
L 464.323665 432.987189
L 473.971431 436.284755
L 485.984823 440.661297
L 497.955595 445.272121
L 512.277597 451.041056
L 531.327634 458.985646
L 569.415583 474.941466
L 583.744404 480.672916
L 595.722943 485.241048
L 607.745996 489.564487
L 617.402854 492.812073
L 627.099112 495.843079
L 636.83962 498.630849
L 646.629227 501.148728
L 654.00657 502.843985
L 661.416305 504.361189
L 668.860478 505.689093
L 676.341134 506.816453
L 683.860318 507.732024
L 691.420078 508.424558
L 699.022458 508.882812
L 706.669505 509.095539
L 709.2288 509.109943
L 709.2288 509.109943
" clip-path="url(#p690360c824)" style="fill: none; stroke: #c8ff7a; stroke-opacity: 0.16; stroke-width: 8.16; stroke-linecap: round"/>
   </g>
   <g id="line2d_14">
    <path d="M 30.9312 385.352229
L 380.286342 385.427939
L 392.933171 385.726141
L 405.465398 386.234328
L 417.892495 386.935147
L 432.679573 388.005967
L 447.345268 389.299198
L 464.323665 391.049063
L 481.185111 393.013217
L 500.345468 395.459273
L 526.568231 399.047474
L 581.353205 406.631503
L 602.930827 409.342602
L 619.823035 411.25039
L 636.83962 412.930283
L 651.543957 414.152709
L 666.375134 415.142729
L 678.843146 415.768577
L 691.420078 416.194853
L 704.1154 416.404202
L 709.2288 416.423314
L 709.2288 416.423314
" clip-path="url(#p690360c824)" style="fill: none; stroke: #c8ff7a; stroke-opacity: 0.16; stroke-width: 8.16; stroke-linecap: round"/>
   </g>
   <g id="line2d_15">
    <path d="M 30.9312 354.807771
L 380.286342 354.732061
L 392.933171 354.433859
L 405.465398 353.925672
L 417.892495 353.224853
L 432.679573 352.154033
L 447.345268 350.860802
L 464.323665 349.110937
L 481.185111 347.146783
L 500.345468 344.700727
L 526.568231 341.112526
L 581.353205 333.528497
L 602.930827 330.817398
L 619.823035 328.90961
L 636.83962 327.229717
L 651.543957 326.007291
L 666.375134 325.017271
L 678.843146 324.391423
L 691.420078 323.965147
L 704.1154 323.755798
L 709.2288 323.736686
L 709.2288 323.736686
" clip-path="url(#p690360c824)" style="fill: none; stroke: #c8ff7a; stroke-opacity: 0.16; stroke-width: 8.16; stroke-linecap: round"/>
   </g>
   <g id="line2d_16">
    <path d="M 30.9312 324.263314
L 375.1934 324.205976
L 382.82533 323.910157
L 390.413276 323.372561
L 397.959284 322.604431
L 405.465398 321.617015
L 412.933666 320.421557
L 420.366132 319.029303
L 427.764843 317.451499
L 435.131843 315.69939
L 444.908721 313.111539
L 454.637712 310.260461
L 464.323665 307.172811
L 473.971431 303.875245
L 485.984823 299.498703
L 497.955595 294.887879
L 512.277597 289.118944
L 531.327634 281.174354
L 569.415583 265.218534
L 583.744404 259.487084
L 595.722943 254.918952
L 607.745996 250.595513
L 617.402854 247.347927
L 627.099112 244.316921
L 636.83962 241.529151
L 646.629227 239.011272
L 654.00657 237.316015
L 661.416305 235.798811
L 668.860478 234.470907
L 676.341134 233.343547
L 683.860318 232.427976
L 691.420078 231.735442
L 699.022458 231.277188
L 706.669505 231.064461
L 709.2288 231.050057
L 709.2288 231.050057
" clip-path="url(#p690360c824)" style="fill: none; stroke: #c8ff7a; stroke-opacity: 0.16; stroke-width: 8.16; stroke-linecap: round"/>
   </g>
   <g id="line2d_17">
    <path d="M 30.9312 415.896686
L 375.1934 415.954024
L 382.82533 416.249843
L 390.413276 416.787439
L 397.959284 417.555569
L 405.465398 418.542985
L 412.933666 419.738443
L 420.366132 421.130697
L 427.764843 422.708501
L 435.131843 424.46061
L 444.908721 427.048461
L 454.637712 429.899539
L 464.323665 432.987189
L 473.971431 436.284755
L 485.984823 440.661297
L 497.955595 445.272121
L 512.277597 451.041056
L 531.327634 458.985646
L 569.415583 474.941466
L 583.744404 480.672916
L 595.722943 485.241048
L 607.745996 489.564487
L 617.402854 492.812073
L 627.099112 495.843079
L 636.83962 498.630849
L 646.629227 501.148728
L 654.00657 502.843985
L 661.416305 504.361189
L 668.860478 505.689093
L 676.341134 506.816453
L 683.860318 507.732024
L 691.420078 508.424558
L 699.022458 508.882812
L 706.669505 509.095539
L 709.2288 509.109943
L 709.2288 509.109943
" clip-path="url(#p690360c824)" style="fill: none; stroke: #c8ff7a; stroke-opacity: 0.32; stroke-width: 4.56; stroke-linecap: round"/>
   </g>
   <g id="line2d_18">
    <path d="M 30.9312 385.352229
L 380.286342 385.427939
L 392.933171 385.726141
L 405.465398 386.234328
L 417.892495 386.935147
L 432.679573 388.005967
L 447.345268 389.299198
L 464.323665 391.049063
L 481.185111 393.013217
L 500.345468 395.459273
L 526.568231 399.047474
L 581.353205 406.631503
L 602.930827 409.342602
L 619.823035 411.25039
L 636.83962 412.930283
L 651.543957 414.152709
L 666.375134 415.142729
L 678.843146 415.768577
L 691.420078 416.194853
L 704.1154 416.404202
L 709.2288 416.423314
L 709.2288 416.423314
" clip-path="url(#p690360c824)" style="fill: none; stroke: #c8ff7a; stroke-opacity: 0.32; stroke-width: 4.56; stroke-linecap: round"/>
   </g>
   <g id="line2d_19">
    <path d="M 30.9312 354.807771
L 380.286342 354.732061
L 392.933171 354.433859
L 405.465398 353.925672
L 417.892495 353.224853
L 432.679573 352.154033
L 447.345268 350.860802
L 464.323665 349.110937
L 481.185111 347.146783
L 500.345468 344.700727
L 526.568231 341.112526
L 581.353205 333.528497
L 602.930827 330.817398
L 619.823035 328.90961
L 636.83962 327.229717
L 651.543957 326.007291
L 666.375134 325.017271
L 678.843146 324.391423
L 691.420078 323.965147
L 704.1154 323.755798
L 709.2288 323.736686
L 709.2288 323.736686
" clip-path="url(#p690360c824)" style="fill: none; stroke: #c8ff7a; stroke-opacity: 0.32; stroke-width: 4.56; stroke-linecap: round"/>
   </g>
   <g id="line2d_20">
    <path d="M 30.9312 324.263314
L 375.1934 324.205976
L 382.82533 323.910157
L 390.413276 323.372561
L 397.959284 322.604431
L 405.465398 321.617015
L 412.933666 320.421557
L 420.366132 319.029303
L 427.764843 317.451499
L 435.131843 315.69939
L 444.908721 313.111539
L 454.637712 310.260461
L 464.323665 307.172811
L 473.971431 303.875245
L 485.984823 299.498703
L 497.955595 294.887879
L 512.277597 289.118944
L 531.327634 281.174354
L 569.415583 265.218534
L 583.744404 259.487084
L 595.722943 254.918952
L 607.745996 250.595513
L 617.402854 247.347927
L 627.099112 244.316921
L 636.83962 241.529151
L 646.629227 239.011272
L 654.00657 237.316015
L 661.416305 235.798811
L 668.860478 234.470907
L 676.341134 233.343547
L 683.860318 232.427976
L 691.420078 231.735442
L 699.022458 231.277188
L 706.669505 231.064461
L 709.2288 231.050057
L 709.2288 231.050057
" clip-path="url(#p690360c824)" style="fill: none; stroke: #c8ff7a; stroke-opacity: 0.32; stroke-width: 4.56; stroke-linecap: round"/>
   </g>
   <g id="patch_20">
    <path d="M 30.9312 427.840622
C 34.098769 427.840622 37.137029 426.582133 39.376838 424.342324
C 41.616648 422.102514 42.875136 419.064255 42.875136 415.896686
C 42.875136 412.729117 41.616648 409.690857 39.376838 407.451048
C 37.137029 405.211238 34.098769 403.95275 30.9312 403.95275
C 27.763631 403.95275 24.725371 405.211238 22.485562 407.451048
C 20.245752 409.690857 18.987264 412.729117 18.987264 415.896686
C 18.987264 419.064255 20.245752 422.102514 22.485562 424.342324
C 24.725371 426.582133 27.763631 427.840622 30.9312 427.840622
z
" clip-path="url(#p690360c824)" style="fill: #c8ff7a; opacity: 0.25"/>
   </g>
   <g id="patch_21">
    <path d="M 709.2288 521.053879
C 712.396369 521.053879 715.434629 519.79539 717.674438 517.555581
C 719.914248 515.315772 721.172736 512.277512 721.172736 509.109943
C 721.172736 505.942374 719.914248 502.904114 717.674438 500.664305
C 715.434629 498.424495 712.396369 497.166007 709.2288 497.166007
C 706.061231 497.166007 703.022971 498.424495 700.783162 500.664305
C 698.543352 502.904114 697.284864 505.942374 697.284864 509.109943
C 697.284864 512.277512 698.543352 515.315772 700.783162 517.555581
C 703.022971 519.79539 706.061231 521.053879 709.2288 521.053879
z
" clip-path="url(#p690360c824)" style="fill: #c8ff7a; opacity: 0.25"/>
   </g>
   <g id="patch_22">
    <path d="M 30.9312 397.296165
C 34.098769 397.296165 37.137029 396.037676 39.376838 393.797867
C 41.616648 391.558057 42.875136 388.519797 42.875136 385.352229
C 42.875136 382.18466 41.616648 379.1464 39.376838 376.90659
C 37.137029 374.666781 34.098769 373.408293 30.9312 373.408293
C 27.763631 373.408293 24.725371 374.666781 22.485562 376.90659
C 20.245752 379.1464 18.987264 382.18466 18.987264 385.352229
C 18.987264 388.519797 20.245752 391.558057 22.485562 393.797867
C 24.725371 396.037676 27.763631 397.296165 30.9312 397.296165
z
" clip-path="url(#p690360c824)" style="fill: #c8ff7a; opacity: 0.25"/>
   </g>
   <g id="patch_23">
    <path d="M 709.2288 428.36725
C 712.396369 428.36725 715.434629 427.108762 717.674438 424.868952
C 719.914248 422.629143 721.172736 419.590883 721.172736 416.423314
C 721.172736 413.255745 719.914248 410.217486 717.674438 407.977676
C 715.434629 405.737867 712.396369 404.479378 709.2288 404.479378
C 706.061231 404.479378 703.022971 405.737867 700.783162 407.977676
C 698.543352 410.217486 697.284864 413.255745 697.284864 416.423314
C 697.284864 419.590883 698.543352 422.629143 700.783162 424.868952
C 703.022971 427.108762 706.061231 428.36725 709.2288 428.36725
z
" clip-path="url(#p690360c824)" style="fill: #c8ff7a; opacity: 0.25"/>
   </g>
   <g id="patch_24">
    <path d="M 30.9312 366.751707
C 34.098769 366.751707 37.137029 365.493219 39.376838 363.25341
C 41.616648 361.0136 42.875136 357.97534 42.875136 354.807771
C 42.875136 351.640203 41.616648 348.601943 39.376838 346.362133
C 37.137029 344.122324 34.098769 342.863835 30.9312 342.863835
C 27.763631 342.863835 24.725371 344.122324 22.485562 346.362133
C 20.245752 348.601943 18.987264 351.640203 18.987264 354.807771
C 18.987264 357.97534 20.245752 361.0136 22.485562 363.25341
C 24.725371 365.493219 27.763631 366.751707 30.9312 366.751707
z
" clip-path="url(#p690360c824)" style="fill: #c8ff7a; opacity: 0.25"/>
   </g>
   <g id="patch_25">
    <path d="M 709.2288 335.680622
C 712.396369 335.680622 715.434629 334.422133 717.674438 332.182324
C 719.914248 329.942514 721.172736 326.904255 721.172736 323.736686
C 721.172736 320.569117 719.914248 317.530857 717.674438 315.291048
C 715.434629 313.051238 712.396369 311.79275 709.2288 311.79275
C 706.061231 311.79275 703.022971 313.051238 700.783162 315.291048
C 698.543352 317.530857 697.284864 320.569117 697.284864 323.736686
C 697.284864 326.904255 698.543352 329.942514 700.783162 332.182324
C 703.022971 334.422133 706.061231 335.680622 709.2288 335.680622
z
" clip-path="url(#p690360c824)" style="fill: #c8ff7a; opacity: 0.25"/>
   </g>
   <g id="patch_26">
    <path d="M 30.9312 336.20725
C 34.098769 336.20725 37.137029 334.948762 39.376838 332.708952
C 41.616648 330.469143 42.875136 327.430883 42.875136 324.263314
C 42.875136 321.095745 41.616648 318.057486 39.376838 315.817676
C 37.137029 313.577867 34.098769 312.319378 30.9312 312.319378
C 27.763631 312.319378 24.725371 313.577867 22.485562 315.817676
C 20.245752 318.057486 18.987264 321.095745 18.987264 324.263314
C 18.987264 327.430883 20.245752 330.469143 22.485562 332.708952
C 24.725371 334.948762 27.763631 336.20725 30.9312 336.20725
z
" clip-path="url(#p690360c824)" style="fill: #c8ff7a; opacity: 0.25"/>
   </g>
   <g id="patch_27">
    <path d="M 709.2288 242.993993
C 712.396369 242.993993 715.434629 241.735505 717.674438 239.495695
C 719.914248 237.255886 721.172736 234.217626 721.172736 231.050057
C 721.172736 227.882488 719.914248 224.844228 717.674438 222.604419
C 715.434629 220.36461 712.396369 219.106121 709.2288 219.106121
C 706.061231 219.106121 703.022971 220.36461 700.783162 222.604419
C 698.543352 224.844228 697.284864 227.882488 697.284864 231.050057
C 697.284864 234.217626 698.543352 237.255886 700.783162 239.495695
C 703.022971 241.735505 706.061231 242.993993 709.2288 242.993993
z
" clip-path="url(#p690360c824)" style="fill: #c8ff7a; opacity: 0.25"/>
   </g>
   <g id="line2d_21">
    <path d="M 30.9312 415.896686
L 375.1934 415.954024
L 382.82533 416.249843
L 390.413276 416.787439
L 397.959284 417.555569
L 405.465398 418.542985
L 412.933666 419.738443
L 420.366132 421.130697
L 427.764843 422.708501
L 435.131843 424.46061
L 444.908721 427.048461
L 454.637712 429.899539
L 464.323665 432.987189
L 473.971431 436.284755
L 485.984823 440.661297
L 497.955595 445.272121
L 512.277597 451.041056
L 531.327634 458.985646
L 569.415583 474.941466
L 583.744404 480.672916
L 595.722943 485.241048
L 607.745996 489.564487
L 617.402854 492.812073
L 627.099112 495.843079
L 636.83962 498.630849
L 646.629227 501.148728
L 654.00657 502.843985
L 661.416305 504.361189
L 668.860478 505.689093
L 676.341134 506.816453
L 683.860318 507.732024
L 691.420078 508.424558
L 699.022458 508.882812
L 706.669505 509.095539
L 709.2288 509.109943
L 709.2288 509.109943
" clip-path="url(#p690360c824)" style="fill: none; stroke: #c8ff7a; stroke-width: 2.4; stroke-linecap: round"/>
   </g>
   <g id="line2d_22">
    <path d="M 30.9312 385.352229
L 380.286342 385.427939
L 392.933171 385.726141
L 405.465398 386.234328
L 417.892495 386.935147
L 432.679573 388.005967
L 447.345268 389.299198
L 464.323665 391.049063
L 481.185111 393.013217
L 500.345468 395.459273
L 526.568231 399.047474
L 581.353205 406.631503
L 602.930827 409.342602
L 619.823035 411.25039
L 636.83962 412.930283
L 651.543957 414.152709
L 666.375134 415.142729
L 678.843146 415.768577
L 691.420078 416.194853
L 704.1154 416.404202
L 709.2288 416.423314
L 709.2288 416.423314
" clip-path="url(#p690360c824)" style="fill: none; stroke: #c8ff7a; stroke-width: 2.4; stroke-linecap: round"/>
   </g>
   <g id="line2d_23">
    <path d="M 30.9312 354.807771
L 380.286342 354.732061
L 392.933171 354.433859
L 405.465398 353.925672
L 417.892495 353.224853
L 432.679573 352.154033
L 447.345268 350.860802
L 464.323665 349.110937
L 481.185111 347.146783
L 500.345468 344.700727
L 526.568231 341.112526
L 581.353205 333.528497
L 602.930827 330.817398
L 619.823035 328.90961
L 636.83962 327.229717
L 651.543957 326.007291
L 666.375134 325.017271
L 678.843146 324.391423
L 691.420078 323.965147
L 704.1154 323.755798
L 709.2288 323.736686
L 709.2288 323.736686
" clip-path="url(#p690360c824)" style="fill: none; stroke: #c8ff7a; stroke-width: 2.4; stroke-linecap: round"/>
   </g>
   <g id="line2d_24">
    <path d="M 30.9312 324.263314
L 375.1934 324.205976
L 382.82533 323.910157
L 390.413276 323.372561
L 397.959284 322.604431
L 405.465398 321.617015
L 412.933666 320.421557
L 420.366132 319.029303
L 427.764843 317.451499
L 435.131843 315.69939
L 444.908721 313.111539
L 454.637712 310.260461
L 464.323665 307.172811
L 473.971431 303.875245
L 485.984823 299.498703
L 497.955595 294.887879
L 512.277597 289.118944
L 531.327634 281.174354
L 569.415583 265.218534
L 583.744404 259.487084
L 595.722943 254.918952
L 607.745996 250.595513
L 617.402854 247.347927
L 627.099112 244.316921
L 636.83962 241.529151
L 646.629227 239.011272
L 654.00657 237.316015
L 661.416305 235.798811
L 668.860478 234.470907
L 676.341134 233.343547
L 683.860318 232.427976
L 691.420078 231.735442
L 699.022458 231.277188
L 706.669505 231.064461
L 709.2288 231.050057
L 709.2288 231.050057
" clip-path="url(#p690360c824)" style="fill: none; stroke: #c8ff7a; stroke-width: 2.4; stroke-linecap: round"/>
   </g>
   <g id="patch_28">
    <path d="M 30.9312 422.532206
C 32.69096 422.532206 34.378883 421.833045 35.623221 420.588707
C 36.86756 419.344368 37.56672 417.656446 37.56672 415.896686
C 37.56672 414.136925 36.86756 412.449003 35.623221 411.204665
C 34.378883 409.960326 32.69096 409.261166 30.9312 409.261166
C 29.17144 409.261166 27.483517 409.960326 26.239179 411.204665
C 24.99484 412.449003 24.29568 414.136925 24.29568 415.896686
C 24.29568 417.656446 24.99484 419.344368 26.239179 420.588707
C 27.483517 421.833045 29.17144 422.532206 30.9312 422.532206
z
" clip-path="url(#p690360c824)" style="fill: #c8ff7a; stroke: #0a0d18; stroke-width: 1.2; stroke-linejoin: miter"/>
   </g>
   <g id="patch_29">
    <path d="M 709.2288 515.745463
C 710.98856 515.745463 712.676483 515.046303 713.920821 513.801964
C 715.16516 512.557625 715.86432 510.869703 715.86432 509.109943
C 715.86432 507.350182 715.16516 505.66226 713.920821 504.417922
C 712.676483 503.173583 710.98856 502.474423 709.2288 502.474423
C 707.46904 502.474423 705.781117 503.173583 704.536779 504.417922
C 703.29244 505.66226 702.59328 507.350182 702.59328 509.109943
C 702.59328 510.869703 703.29244 512.557625 704.536779 513.801964
C 705.781117 515.046303 707.46904 515.745463 709.2288 515.745463
z
" clip-path="url(#p690360c824)" style="fill: #c8ff7a; stroke: #0a0d18; stroke-width: 1.2; stroke-linejoin: miter"/>
   </g>
   <g id="patch_30">
    <path d="M 30.9312 391.987749
C 32.69096 391.987749 34.378883 391.288588 35.623221 390.04425
C 36.86756 388.799911 37.56672 387.111989 37.56672 385.352229
C 37.56672 383.592468 36.86756 381.904546 35.623221 380.660207
C 34.378883 379.415869 32.69096 378.716709 30.9312 378.716709
C 29.17144 378.716709 27.483517 379.415869 26.239179 380.660207
C 24.99484 381.904546 24.29568 383.592468 24.29568 385.352229
C 24.29568 387.111989 24.99484 388.799911 26.239179 390.04425
C 27.483517 391.288588 29.17144 391.987749 30.9312 391.987749
z
" clip-path="url(#p690360c824)" style="fill: #c8ff7a; stroke: #0a0d18; stroke-width: 1.2; stroke-linejoin: miter"/>
   </g>
   <g id="patch_31">
    <path d="M 709.2288 423.058834
C 710.98856 423.058834 712.676483 422.359674 713.920821 421.115335
C 715.16516 419.870997 715.86432 418.183075 715.86432 416.423314
C 715.86432 414.663554 715.16516 412.975632 713.920821 411.731293
C 712.676483 410.486955 710.98856 409.787794 709.2288 409.787794
C 707.46904 409.787794 705.781117 410.486955 704.536779 411.731293
C 703.29244 412.975632 702.59328 414.663554 702.59328 416.423314
C 702.59328 418.183075 703.29244 419.870997 704.536779 421.115335
C 705.781117 422.359674 707.46904 423.058834 709.2288 423.058834
z
" clip-path="url(#p690360c824)" style="fill: #c8ff7a; stroke: #0a0d18; stroke-width: 1.2; stroke-linejoin: miter"/>
   </g>
   <g id="patch_32">
    <path d="M 30.9312 361.443291
C 32.69096 361.443291 34.378883 360.744131 35.623221 359.499793
C 36.86756 358.255454 37.56672 356.567532 37.56672 354.807771
C 37.56672 353.048011 36.86756 351.360089 35.623221 350.11575
C 34.378883 348.871412 32.69096 348.172251 30.9312 348.172251
C 29.17144 348.172251 27.483517 348.871412 26.239179 350.11575
C 24.99484 351.360089 24.29568 353.048011 24.29568 354.807771
C 24.29568 356.567532 24.99484 358.255454 26.239179 359.499793
C 27.483517 360.744131 29.17144 361.443291 30.9312 361.443291
z
" clip-path="url(#p690360c824)" style="fill: #c8ff7a; stroke: #0a0d18; stroke-width: 1.2; stroke-linejoin: miter"/>
   </g>
   <g id="patch_33">
    <path d="M 709.2288 330.372206
C 710.98856 330.372206 712.676483 329.673045 713.920821 328.428707
C 715.16516 327.184368 715.86432 325.496446 715.86432 323.736686
C 715.86432 321.976925 715.16516 320.289003 713.920821 319.044665
C 712.676483 317.800326 710.98856 317.101166 709.2288 317.101166
C 707.46904 317.101166 705.781117 317.800326 704.536779 319.044665
C 703.29244 320.289003 702.59328 321.976925 702.59328 323.736686
C 702.59328 325.496446 703.29244 327.184368 704.536779 328.428707
C 705.781117 329.673045 707.46904 330.372206 709.2288 330.372206
z
" clip-path="url(#p690360c824)" style="fill: #c8ff7a; stroke: #0a0d18; stroke-width: 1.2; stroke-linejoin: miter"/>
   </g>
   <g id="patch_34">
    <path d="M 30.9312 330.898834
C 32.69096 330.898834 34.378883 330.199674 35.623221 328.955335
C 36.86756 327.710997 37.56672 326.023075 37.56672 324.263314
C 37.56672 322.503554 36.86756 320.815632 35.623221 319.571293
C 34.378883 318.326955 32.69096 317.627794 30.9312 317.627794
C 29.17144 317.627794 27.483517 318.326955 26.239179 319.571293
C 24.99484 320.815632 24.29568 322.503554 24.29568 324.263314
C 24.29568 326.023075 24.99484 327.710997 26.239179 328.955335
C 27.483517 330.199674 29.17144 330.898834 30.9312 330.898834
z
" clip-path="url(#p690360c824)" style="fill: #c8ff7a; stroke: #0a0d18; stroke-width: 1.2; stroke-linejoin: miter"/>
   </g>
   <g id="patch_35">
    <path d="M 709.2288 237.685577
C 710.98856 237.685577 712.676483 236.986417 713.920821 235.742078
C 715.16516 234.49774 715.86432 232.809818 715.86432 231.050057
C 715.86432 229.290297 715.16516 227.602375 713.920821 226.358036
C 712.676483 225.113697 710.98856 224.414537 709.2288 224.414537
C 707.46904 224.414537 705.781117 225.113697 704.536779 226.358036
C 703.29244 227.602375 702.59328 229.290297 702.59328 231.050057
C 702.59328 232.809818 703.29244 234.49774 704.536779 235.742078
C 705.781117 236.986417 707.46904 237.685577 709.2288 237.685577
z
" clip-path="url(#p690360c824)" style="fill: #c8ff7a; stroke: #0a0d18; stroke-width: 1.2; stroke-linejoin: miter"/>
   </g>
   <g id="patch_36">
    <path d="M 572.672433 494.496
L 529.573467 519.3792
L 529.573467 469.6128
L 572.672433 444.7296
z
" clip-path="url(#p690360c824)" style="fill: #a6f24a; stroke: #0a0d18; stroke-width: 0.72; stroke-linejoin: miter"/>
   </g>
   <g id="patch_37">
    <path d="M 572.672433 444.7296
L 529.573467 469.6128
L 529.573467 419.8464
L 572.672433 394.9632
z
" clip-path="url(#p690360c824)" style="fill: #a6f24a; stroke: #0a0d18; stroke-width: 0.72; stroke-linejoin: miter"/>
   </g>
   <g id="patch_38">
    <path d="M 572.672433 394.9632
L 529.573467 419.8464
L 529.573467 370.08
L 572.672433 345.1968
z
" clip-path="url(#p690360c824)" style="fill: #a6f24a; stroke: #0a0d18; stroke-width: 0.72; stroke-linejoin: miter"/>
   </g>
   <g id="patch_39">
    <path d="M 572.672433 345.1968
L 529.573467 370.08
L 529.573467 320.3136
L 572.672433 295.4304
z
" clip-path="url(#p690360c824)" style="fill: #a6f24a; stroke: #0a0d18; stroke-width: 0.72; stroke-linejoin: miter"/>
   </g>
   <g id="patch_40">
    <path d="M 572.672433 295.4304
L 529.573467 320.3136
L 529.573467 270.5472
L 572.672433 245.664
z
" clip-path="url(#p690360c824)" style="fill: #a6f24a; stroke: #0a0d18; stroke-width: 0.72; stroke-linejoin: miter"/>
   </g>
   <g id="patch_41">
    <path d="M 529.573467 519.3792
L 486.4745 544.2624
L 486.4745 494.496
L 529.573467 469.6128
z
" clip-path="url(#p690360c824)" style="fill: #1f3300; stroke: #0a0d18; stroke-width: 0.72; stroke-linejoin: miter"/>
   </g>
   <g id="patch_42">
    <path d="M 529.573467 469.6128
L 486.4745 494.496
L 486.4745 444.7296
L 529.573467 419.8464
z
" clip-path="url(#p690360c824)" style="fill: #a6f24a; stroke: #0a0d18; stroke-width: 0.72; stroke-linejoin: miter"/>
   </g>
   <g id="patch_43">
    <path d="M 529.573467 419.8464
L 486.4745 444.7296
L 486.4745 394.9632
L 529.573467 370.08
z
" clip-path="url(#p690360c824)" style="fill: #1f3300; stroke: #0a0d18; stroke-width: 0.72; stroke-linejoin: miter"/>
   </g>
   <g id="patch_44">
    <path d="M 529.573467 370.08
L 486.4745 394.9632
L 486.4745 345.1968
L 529.573467 320.3136
z
" clip-path="url(#p690360c824)" style="fill: #1f3300; stroke: #0a0d18; stroke-width: 0.72; stroke-linejoin: miter"/>
   </g>
   <g id="patch_45">
    <path d="M 529.573467 320.3136
L 486.4745 345.1968
L 486.4745 295.4304
L 529.573467 270.5472
z
" clip-path="url(#p690360c824)" style="fill: #1f3300; stroke: #0a0d18; stroke-width: 0.72; stroke-linejoin: miter"/>
   </g>
   <g id="patch_46">
    <path d="M 486.4745 544.2624
L 443.375533 569.1456
L 443.375533 519.3792
L 486.4745 494.496
z
" clip-path="url(#p690360c824)" style="fill: #1f3300; stroke: #0a0d18; stroke-width: 0.72; stroke-linejoin: miter"/>
   </g>
   <g id="patch_47">
    <path d="M 486.4745 494.496
L 443.375533 519.3792
L 443.375533 469.6128
L 486.4745 444.7296
z
" clip-path="url(#p690360c824)" style="fill: #1f3300; stroke: #0a0d18; stroke-width: 0.72; stroke-linejoin: miter"/>
   </g>
   <g id="patch_48">
    <path d="M 486.4745 444.7296
L 443.375533 469.6128
L 443.375533 419.8464
L 486.4745 394.9632
z
" clip-path="url(#p690360c824)" style="fill: #a6f24a; stroke: #0a0d18; stroke-width: 0.72; stroke-linejoin: miter"/>
   </g>
   <g id="patch_49">
    <path d="M 486.4745 394.9632
L 443.375533 419.8464
L 443.375533 370.08
L 486.4745 345.1968
z
" clip-path="url(#p690360c824)" style="fill: #1f3300; stroke: #0a0d18; stroke-width: 0.72; stroke-linejoin: miter"/>
   </g>
   <g id="patch_50">
    <path d="M 486.4745 345.1968
L 443.375533 370.08
L 443.375533 320.3136
L 486.4745 295.4304
z
" clip-path="url(#p690360c824)" style="fill: #1f3300; stroke: #0a0d18; stroke-width: 0.72; stroke-linejoin: miter"/>
   </g>
   <g id="patch_51">
    <path d="M 443.375533 569.1456
L 400.276567 594.0288
L 400.276567 544.2624
L 443.375533 519.3792
z
" clip-path="url(#p690360c824)" style="fill: #1f3300; stroke: #0a0d18; stroke-width: 0.72; stroke-linejoin: miter"/>
   </g>
   <g id="patch_52">
    <path d="M 443.375533 519.3792
L 400.276567 544.2624
L 400.276567 494.496
L 443.375533 469.6128
z
" clip-path="url(#p690360c824)" style="fill: #1f3300; stroke: #0a0d18; stroke-width: 0.72; stroke-linejoin: miter"/>
   </g>
   <g id="patch_53">
    <path d="M 443.375533 469.6128
L 400.276567 494.496
L 400.276567 444.7296
L 443.375533 419.8464
z
" clip-path="url(#p690360c824)" style="fill: #1f3300; stroke: #0a0d18; stroke-width: 0.72; stroke-linejoin: miter"/>
   </g>
   <g id="patch_54">
    <path d="M 443.375533 419.8464
L 400.276567 444.7296
L 400.276567 394.9632
L 443.375533 370.08
z
" clip-path="url(#p690360c824)" style="fill: #a6f24a; stroke: #0a0d18; stroke-width: 0.72; stroke-linejoin: miter"/>
   </g>
   <g id="patch_55">
    <path d="M 443.375533 370.08
L 400.276567 394.9632
L 400.276567 345.1968
L 443.375533 320.3136
z
" clip-path="url(#p690360c824)" style="fill: #1f3300; stroke: #0a0d18; stroke-width: 0.72; stroke-linejoin: miter"/>
   </g>
   <g id="patch_56">
    <path d="M 400.276567 594.0288
L 357.1776 618.912
L 357.1776 569.1456
L 400.276567 544.2624
z
" clip-path="url(#p690360c824)" style="fill: #a6f24a; stroke: #0a0d18; stroke-width: 0.72; stroke-linejoin: miter"/>
   </g>
   <g id="patch_57">
    <path d="M 400.276567 544.2624
L 357.1776 569.1456
L 357.1776 519.3792
L 400.276567 494.496
z
" clip-path="url(#p690360c824)" style="fill: #a6f24a; stroke: #0a0d18; stroke-width: 0.72; stroke-linejoin: miter"/>
   </g>
   <g id="patch_58">
    <path d="M 400.276567 494.496
L 357.1776 519.3792
L 357.1776 469.6128
L 400.276567 444.7296
z
" clip-path="url(#p690360c824)" style="fill: #a6f24a; stroke: #0a0d18; stroke-width: 0.72; stroke-linejoin: miter"/>
   </g>
   <g id="patch_59">
    <path d="M 400.276567 444.7296
L 357.1776 469.6128
L 357.1776 419.8464
L 400.276567 394.9632
z
" clip-path="url(#p690360c824)" style="fill: #a6f24a; stroke: #0a0d18; stroke-width: 0.72; stroke-linejoin: miter"/>
   </g>
   <g id="patch_60">
    <path d="M 400.276567 394.9632
L 357.1776 419.8464
L 357.1776 370.08
L 400.276567 345.1968
z
" clip-path="url(#p690360c824)" style="fill: #a6f24a; stroke: #0a0d18; stroke-width: 0.72; stroke-linejoin: miter"/>
   </g>
   <g id="patch_61">
    <path d="M 141.682767 494.496
L 184.781733 519.3792
L 184.781733 469.6128
L 141.682767 444.7296
z
" clip-path="url(#p690360c824)" style="fill: #76b900; stroke: #0a0d18; stroke-width: 0.72; stroke-linejoin: miter"/>
   </g>
   <g id="patch_62">
    <path d="M 141.682767 444.7296
L 184.781733 469.6128
L 184.781733 419.8464
L 141.682767 394.9632
z
" clip-path="url(#p690360c824)" style="fill: #76b900; stroke: #0a0d18; stroke-width: 0.72; stroke-linejoin: miter"/>
   </g>
   <g id="patch_63">
    <path d="M 141.682767 394.9632
L 184.781733 419.8464
L 184.781733 370.08
L 141.682767 345.1968
z
" clip-path="url(#p690360c824)" style="fill: #76b900; stroke: #0a0d18; stroke-width: 0.72; stroke-linejoin: miter"/>
   </g>
   <g id="patch_64">
    <path d="M 141.682767 345.1968
L 184.781733 370.08
L 184.781733 320.3136
L 141.682767 295.4304
z
" clip-path="url(#p690360c824)" style="fill: #76b900; stroke: #0a0d18; stroke-width: 0.72; stroke-linejoin: miter"/>
   </g>
   <g id="patch_65">
    <path d="M 141.682767 295.4304
L 184.781733 320.3136
L 184.781733 270.5472
L 141.682767 245.664
z
" clip-path="url(#p690360c824)" style="fill: #76b900; stroke: #0a0d18; stroke-width: 0.72; stroke-linejoin: miter"/>
   </g>
   <g id="patch_66">
    <path d="M 184.781733 519.3792
L 227.8807 544.2624
L 227.8807 494.496
L 184.781733 469.6128
z
" clip-path="url(#p690360c824)" style="fill: #13200a; stroke: #0a0d18; stroke-width: 0.72; stroke-linejoin: miter"/>
   </g>
   <g id="patch_67">
    <path d="M 184.781733 469.6128
L 227.8807 494.496
L 227.8807 444.7296
L 184.781733 419.8464
z
" clip-path="url(#p690360c824)" style="fill: #76b900; stroke: #0a0d18; stroke-width: 0.72; stroke-linejoin: miter"/>
   </g>
   <g id="patch_68">
    <path d="M 184.781733 419.8464
L 227.8807 444.7296
L 227.8807 394.9632
L 184.781733 370.08
z
" clip-path="url(#p690360c824)" style="fill: #13200a; stroke: #0a0d18; stroke-width: 0.72; stroke-linejoin: miter"/>
   </g>
   <g id="patch_69">
    <path d="M 184.781733 370.08
L 227.8807 394.9632
L 227.8807 345.1968
L 184.781733 320.3136
z
" clip-path="url(#p690360c824)" style="fill: #13200a; stroke: #0a0d18; stroke-width: 0.72; stroke-linejoin: miter"/>
   </g>
   <g id="patch_70">
    <path d="M 184.781733 320.3136
L 227.8807 345.1968
L 227.8807 295.4304
L 184.781733 270.5472
z
" clip-path="url(#p690360c824)" style="fill: #13200a; stroke: #0a0d18; stroke-width: 0.72; stroke-linejoin: miter"/>
   </g>
   <g id="patch_71">
    <path d="M 227.8807 544.2624
L 270.979667 569.1456
L 270.979667 519.3792
L 227.8807 494.496
z
" clip-path="url(#p690360c824)" style="fill: #13200a; stroke: #0a0d18; stroke-width: 0.72; stroke-linejoin: miter"/>
   </g>
   <g id="patch_72">
    <path d="M 227.8807 494.496
L 270.979667 519.3792
L 270.979667 469.6128
L 227.8807 444.7296
z
" clip-path="url(#p690360c824)" style="fill: #13200a; stroke: #0a0d18; stroke-width: 0.72; stroke-linejoin: miter"/>
   </g>
   <g id="patch_73">
    <path d="M 227.8807 444.7296
L 270.979667 469.6128
L 270.979667 419.8464
L 227.8807 394.9632
z
" clip-path="url(#p690360c824)" style="fill: #76b900; stroke: #0a0d18; stroke-width: 0.72; stroke-linejoin: miter"/>
   </g>
   <g id="patch_74">
    <path d="M 227.8807 394.9632
L 270.979667 419.8464
L 270.979667 370.08
L 227.8807 345.1968
z
" clip-path="url(#p690360c824)" style="fill: #13200a; stroke: #0a0d18; stroke-width: 0.72; stroke-linejoin: miter"/>
   </g>
   <g id="patch_75">
    <path d="M 227.8807 345.1968
L 270.979667 370.08
L 270.979667 320.3136
L 227.8807 295.4304
z
" clip-path="url(#p690360c824)" style="fill: #13200a; stroke: #0a0d18; stroke-width: 0.72; stroke-linejoin: miter"/>
   </g>
   <g id="patch_76">
    <path d="M 270.979667 569.1456
L 314.078633 594.0288
L 314.078633 544.2624
L 270.979667 519.3792
z
" clip-path="url(#p690360c824)" style="fill: #13200a; stroke: #0a0d18; stroke-width: 0.72; stroke-linejoin: miter"/>
   </g>
   <g id="patch_77">
    <path d="M 270.979667 519.3792
L 314.078633 544.2624
L 314.078633 494.496
L 270.979667 469.6128
z
" clip-path="url(#p690360c824)" style="fill: #76b900; stroke: #0a0d18; stroke-width: 0.72; stroke-linejoin: miter"/>
   </g>
   <g id="patch_78">
    <path d="M 270.979667 469.6128
L 314.078633 494.496
L 314.078633 444.7296
L 270.979667 419.8464
z
" clip-path="url(#p690360c824)" style="fill: #13200a; stroke: #0a0d18; stroke-width: 0.72; stroke-linejoin: miter"/>
   </g>
   <g id="patch_79">
    <path d="M 270.979667 419.8464
L 314.078633 444.7296
L 314.078633 394.9632
L 270.979667 370.08
z
" clip-path="url(#p690360c824)" style="fill: #13200a; stroke: #0a0d18; stroke-width: 0.72; stroke-linejoin: miter"/>
   </g>
   <g id="patch_80">
    <path d="M 270.979667 370.08
L 314.078633 394.9632
L 314.078633 345.1968
L 270.979667 320.3136
z
" clip-path="url(#p690360c824)" style="fill: #13200a; stroke: #0a0d18; stroke-width: 0.72; stroke-linejoin: miter"/>
   </g>
   <g id="patch_81">
    <path d="M 314.078633 594.0288
L 357.1776 618.912
L 357.1776 569.1456
L 314.078633 544.2624
z
" clip-path="url(#p690360c824)" style="fill: #76b900; stroke: #0a0d18; stroke-width: 0.72; stroke-linejoin: miter"/>
   </g>
   <g id="patch_82">
    <path d="M 314.078633 544.2624
L 357.1776 569.1456
L 357.1776 519.3792
L 314.078633 494.496
z
" clip-path="url(#p690360c824)" style="fill: #76b900; stroke: #0a0d18; stroke-width: 0.72; stroke-linejoin: miter"/>
   </g>
   <g id="patch_83">
    <path d="M 314.078633 494.496
L 357.1776 519.3792
L 357.1776 469.6128
L 314.078633 444.7296
z
" clip-path="url(#p690360c824)" style="fill: #76b900; stroke: #0a0d18; stroke-width: 0.72; stroke-linejoin: miter"/>
   </g>
   <g id="patch_84">
    <path d="M 314.078633 444.7296
L 357.1776 469.6128
L 357.1776 419.8464
L 314.078633 394.9632
z
" clip-path="url(#p690360c824)" style="fill: #76b900; stroke: #0a0d18; stroke-width: 0.72; stroke-linejoin: miter"/>
   </g>
   <g id="patch_85">
    <path d="M 314.078633 394.9632
L 357.1776 419.8464
L 357.1776 370.08
L 314.078633 345.1968
z
" clip-path="url(#p690360c824)" style="fill: #76b900; stroke: #0a0d18; stroke-width: 0.72; stroke-linejoin: miter"/>
   </g>
   <g id="patch_86">
    <path d="M 357.1776 121.248
L 400.276567 146.1312
L 357.1776 171.0144
L 314.078633 146.1312
z
" clip-path="url(#p690360c824)" style="fill: #2e4a00; stroke: #0a0d18; stroke-width: 0.72; stroke-linejoin: miter"/>
   </g>
   <g id="patch_87">
    <path d="M 314.078633 146.1312
L 357.1776 171.0144
L 314.078633 195.8976
L 270.979667 171.0144
z
" clip-path="url(#p690360c824)" style="fill: #c8ff7a; stroke: #0a0d18; stroke-width: 0.72; stroke-linejoin: miter"/>
   </g>
   <g id="patch_88">
    <path d="M 270.979667 171.0144
L 314.078633 195.8976
L 270.979667 220.7808
L 227.8807 195.8976
z
" clip-path="url(#p690360c824)" style="fill: #c8ff7a; stroke: #0a0d18; stroke-width: 0.72; stroke-linejoin: miter"/>
   </g>
   <g id="patch_89">
    <path d="M 227.8807 195.8976
L 270.979667 220.7808
L 227.8807 245.664
L 184.781733 220.7808
z
" clip-path="url(#p690360c824)" style="fill: #c8ff7a; stroke: #0a0d18; stroke-width: 0.72; stroke-linejoin: miter"/>
   </g>
   <g id="patch_90">
    <path d="M 184.781733 220.7808
L 227.8807 245.664
L 184.781733 270.5472
L 141.682767 245.664
z
" clip-path="url(#p690360c824)" style="fill: #2e4a00; stroke: #0a0d18; stroke-width: 0.72; stroke-linejoin: miter"/>
   </g>
   <g id="patch_91">
    <path d="M 400.276567 146.1312
L 443.375533 171.0144
L 400.276567 195.8976
L 357.1776 171.0144
z
" clip-path="url(#p690360c824)" style="fill: #c8ff7a; stroke: #0a0d18; stroke-width: 0.72; stroke-linejoin: miter"/>
   </g>
   <g id="patch_92">
    <path d="M 357.1776 171.0144
L 400.276567 195.8976
L 357.1776 220.7808
L 314.078633 195.8976
z
" clip-path="url(#p690360c824)" style="fill: #2e4a00; stroke: #0a0d18; stroke-width: 0.72; stroke-linejoin: miter"/>
   </g>
   <g id="patch_93">
    <path d="M 314.078633 195.8976
L 357.1776 220.7808
L 314.078633 245.664
L 270.979667 220.7808
z
" clip-path="url(#p690360c824)" style="fill: #2e4a00; stroke: #0a0d18; stroke-width: 0.72; stroke-linejoin: miter"/>
   </g>
   <g id="patch_94">
    <path d="M 270.979667 220.7808
L 314.078633 245.664
L 270.979667 270.5472
L 227.8807 245.664
z
" clip-path="url(#p690360c824)" style="fill: #2e4a00; stroke: #0a0d18; stroke-width: 0.72; stroke-linejoin: miter"/>
   </g>
   <g id="patch_95">
    <path d="M 227.8807 245.664
L 270.979667 270.5472
L 227.8807 295.4304
L 184.781733 270.5472
z
" clip-path="url(#p690360c824)" style="fill: #c8ff7a; stroke: #0a0d18; stroke-width: 0.72; stroke-linejoin: miter"/>
   </g>
   <g id="patch_96">
    <path d="M 443.375533 171.0144
L 486.4745 195.8976
L 443.375533 220.7808
L 400.276567 195.8976
z
" clip-path="url(#p690360c824)" style="fill: #c8ff7a; stroke: #0a0d18; stroke-width: 0.72; stroke-linejoin: miter"/>
   </g>
   <g id="patch_97">
    <path d="M 400.276567 195.8976
L 443.375533 220.7808
L 400.276567 245.664
L 357.1776 220.7808
z
" clip-path="url(#p690360c824)" style="fill: #2e4a00; stroke: #0a0d18; stroke-width: 0.72; stroke-linejoin: miter"/>
   </g>
   <g id="patch_98">
    <path d="M 357.1776 220.7808
L 400.276567 245.664
L 357.1776 270.5472
L 314.078633 245.664
z
" clip-path="url(#p690360c824)" style="fill: #2e4a00; stroke: #0a0d18; stroke-width: 0.72; stroke-linejoin: miter"/>
   </g>
   <g id="patch_99">
    <path d="M 314.078633 245.664
L 357.1776 270.5472
L 314.078633 295.4304
L 270.979667 270.5472
z
" clip-path="url(#p690360c824)" style="fill: #2e4a00; stroke: #0a0d18; stroke-width: 0.72; stroke-linejoin: miter"/>
   </g>
   <g id="patch_100">
    <path d="M 270.979667 270.5472
L 314.078633 295.4304
L 270.979667 320.3136
L 227.8807 295.4304
z
" clip-path="url(#p690360c824)" style="fill: #c8ff7a; stroke: #0a0d18; stroke-width: 0.72; stroke-linejoin: miter"/>
   </g>
   <g id="patch_101">
    <path d="M 486.4745 195.8976
L 529.573467 220.7808
L 486.4745 245.664
L 443.375533 220.7808
z
" clip-path="url(#p690360c824)" style="fill: #c8ff7a; stroke: #0a0d18; stroke-width: 0.72; stroke-linejoin: miter"/>
   </g>
   <g id="patch_102">
    <path d="M 443.375533 220.7808
L 486.4745 245.664
L 443.375533 270.5472
L 400.276567 245.664
z
" clip-path="url(#p690360c824)" style="fill: #2e4a00; stroke: #0a0d18; stroke-width: 0.72; stroke-linejoin: miter"/>
   </g>
   <g id="patch_103">
    <path d="M 400.276567 245.664
L 443.375533 270.5472
L 400.276567 295.4304
L 357.1776 270.5472
z
" clip-path="url(#p690360c824)" style="fill: #2e4a00; stroke: #0a0d18; stroke-width: 0.72; stroke-linejoin: miter"/>
   </g>
   <g id="patch_104">
    <path d="M 357.1776 270.5472
L 400.276567 295.4304
L 357.1776 320.3136
L 314.078633 295.4304
z
" clip-path="url(#p690360c824)" style="fill: #2e4a00; stroke: #0a0d18; stroke-width: 0.72; stroke-linejoin: miter"/>
   </g>
   <g id="patch_105">
    <path d="M 314.078633 295.4304
L 357.1776 320.3136
L 314.078633 345.1968
L 270.979667 320.3136
z
" clip-path="url(#p690360c824)" style="fill: #c8ff7a; stroke: #0a0d18; stroke-width: 0.72; stroke-linejoin: miter"/>
   </g>
   <g id="patch_106">
    <path d="M 529.573467 220.7808
L 572.672433 245.664
L 529.573467 270.5472
L 486.4745 245.664
z
" clip-path="url(#p690360c824)" style="fill: #2e4a00; stroke: #0a0d18; stroke-width: 0.72; stroke-linejoin: miter"/>
   </g>
   <g id="patch_107">
    <path d="M 486.4745 245.664
L 529.573467 270.5472
L 486.4745 295.4304
L 443.375533 270.5472
z
" clip-path="url(#p690360c824)" style="fill: #2e4a00; stroke: #0a0d18; stroke-width: 0.72; stroke-linejoin: miter"/>
   </g>
   <g id="patch_108">
    <path d="M 443.375533 270.5472
L 486.4745 295.4304
L 443.375533 320.3136
L 400.276567 295.4304
z
" clip-path="url(#p690360c824)" style="fill: #2e4a00; stroke: #0a0d18; stroke-width: 0.72; stroke-linejoin: miter"/>
   </g>
   <g id="patch_109">
    <path d="M 400.276567 295.4304
L 443.375533 320.3136
L 400.276567 345.1968
L 357.1776 320.3136
z
" clip-path="url(#p690360c824)" style="fill: #2e4a00; stroke: #0a0d18; stroke-width: 0.72; stroke-linejoin: miter"/>
   </g>
   <g id="patch_110">
    <path d="M 357.1776 320.3136
L 400.276567 345.1968
L 357.1776 370.08
L 314.078633 345.1968
z
" clip-path="url(#p690360c824)" style="fill: #2e4a00; stroke: #0a0d18; stroke-width: 0.72; stroke-linejoin: miter"/>
   </g>
   <g id="patch_111">
    <path d="M 141.682767 494.496
L 357.1776 618.912
L 357.1776 370.08
L 141.682767 245.664
L 141.682767 494.496
z
" clip-path="url(#p690360c824)" style="fill: none; stroke: #0a0d18; stroke-width: 2.4; stroke-linejoin: miter"/>
   </g>
   <g id="patch_112">
    <path d="M 572.672433 494.496
L 357.1776 618.912
L 357.1776 370.08
L 572.672433 245.664
L 572.672433 494.496
z
" clip-path="url(#p690360c824)" style="fill: none; stroke: #0a0d18; stroke-width: 2.4; stroke-linejoin: miter"/>
   </g>
   <g id="patch_113">
    <path d="M 357.1776 121.248
L 572.672433 245.664
L 357.1776 370.08
L 141.682767 245.664
L 357.1776 121.248
z
" clip-path="url(#p690360c824)" style="fill: none; stroke: #0a0d18; stroke-width: 2.4; stroke-linejoin: miter"/>
   </g>
  </g>
 </g>
 <defs>
  <clipPath id="p690360c824">
   <rect x="1.44" y="1.44" width="737.28" height="737.28"/>
  </clipPath>
 </defs>
</svg>
