<?xml version="1.0" encoding="utf-8" standalone="no"?>
<!DOCTYPE svg PUBLIC "-//W3C//DTD SVG 1.1//EN"
  "http://www.w3.org/Graphics/SVG/1.1/DTD/svg11.dtd">
<svg xmlns:xlink="http://www.w3.org/1999/xlink" width="924.48pt" height="233.28pt" viewBox="0 0 924.48 233.28" xmlns="http://www.w3.org/2000/svg" version="1.1">
 <metadata>
  <rdf:RDF xmlns:dc="http://purl.org/dc/elements/1.1/" xmlns:cc="http://creativecommons.org/ns#" xmlns:rdf="http://www.w3.org/1999/02/22-rdf-syntax-ns#">
   <cc:Work>
    <dc:type rdf:resource="http://purl.org/dc/dcmitype/StillImage"/>
    <dc:date>2026-04-30T00:51:53.452824</dc:date>
    <dc:format>image/svg+xml</dc:format>
    <dc:creator>
     <cc:Agent>
      <dc:title>Matplotlib v3.10.3, https://matplotlib.org/</dc:title>
     </cc:Agent>
    </dc:creator>
   </cc:Work>
  </rdf:RDF>
 </metadata>
 <defs>
  <style type="text/css">*{stroke-linejoin: round; stroke-linecap: butt}</style>
 </defs>
 <g id="figure_1">
  <g id="patch_1">
   <path d="M 0 233.28
L 924.48 233.28
L 924.48 -0
L 0 -0
L 0 233.28
z
" style="fill: none"/>
  </g>
  <g id="axes_1">
   <g id="patch_2">
    <path d="M 24.48 231.84
L 900 231.84
Q 923.04 231.84 923.04 208.8
L 923.04 24.48
Q 923.04 1.44 900 1.44
L 24.48 1.44
Q 1.44 1.44 1.44 24.48
L 1.44 208.8
Q 1.44 231.84 24.48 231.84
z
" clip-path="url(#p9f266818fa)" style="fill: #13203a"/>
   </g>
   <g id="patch_3">
    <path d="M 24.48 231.84
L 900 231.84
Q 923.04 231.84 923.04 208.8
L 923.04 24.48
Q 923.04 1.44 900 1.44
L 24.48 1.44
Q 1.44 1.44 1.44 24.48
L 1.44 208.8
Q 1.44 231.84 24.48 231.84
z
" clip-path="url(#p9f266818fa)" style="fill: #0b1020; opacity: 0.25"/>
   </g>
   <g id="line2d_1">
    <path d="M 72.147711 156.96
L 200.702141 157.057179
L 204.100793 157.342072
L 207.477202 157.804712
L 211.946637 158.680833
L 216.381704 159.831603
L 220.785359 161.233397
L 225.160559 162.862588
L 229.51026 164.695552
L 234.916031 167.237318
L 240.292354 170.014418
L 246.7132 173.59261
L 255.238542 178.649501
L 278.655286 192.779291
L 285.08112 196.317614
L 290.462871 199.051339
L 295.875225 201.540501
L 300.231023 203.324736
L 304.61306 204.899293
L 309.024291 206.240545
L 313.467673 207.324868
L 317.946162 208.128635
L 321.329847 208.533134
L 324.73619 208.756563
L 327.020289 208.8
L 327.020289 208.8
" clip-path="url(#p9f266818fa)" style="fill: none; stroke: #76b900; stroke-opacity: 0.088; stroke-width: 4.08; stroke-linecap: round"/>
   </g>
   <g id="line2d_2">
    <path d="M 72.147711 145.44
L 200.702141 145.509414
L 205.228672 145.809306
L 209.7164 146.330689
L 214.168282 147.056688
L 218.587274 147.970428
L 224.069265 149.350903
L 229.51026 150.965394
L 234.916031 152.780941
L 241.364593 155.178584
L 248.84763 158.205785
L 259.492529 162.788106
L 276.519562 170.147241
L 284.007934 173.143987
L 290.462871 175.505242
L 295.875225 177.283215
L 301.323957 178.85354
L 306.814841 180.183256
L 311.241778 181.051643
L 315.702344 181.72807
L 320.199496 182.195663
L 324.73619 182.437545
L 327.020289 182.468571
L 327.020289 182.468571
" clip-path="url(#p9f266818fa)" style="fill: none; stroke: #76b900; stroke-opacity: 0.088; stroke-width: 4.08; stroke-linecap: round"/>
   </g>
   <g id="line2d_3">
    <path d="M 72.147711 87.84
L 200.702141 87.770586
L 205.228672 87.470694
L 209.7164 86.949311
L 214.168282 86.223312
L 218.587274 85.309572
L 224.069265 83.929097
L 229.51026 82.314606
L 234.916031 80.499059
L 241.364593 78.101416
L 248.84763 75.074215
L 259.492529 70.491894
L 276.519562 63.132759
L 284.007934 60.136013
L 290.462871 57.774758
L 295.875225 55.996785
L 301.323957 54.42646
L 306.814841 53.096744
L 311.241778 52.228357
L 315.702344 51.55193
L 320.199496 51.084337
L 324.73619 50.842455
L 327.020289 50.811429
L 327.020289 50.811429
" clip-path="url(#p9f266818fa)" style="fill: none; stroke: #76b900; stroke-opacity: 0.088; stroke-width: 4.08; stroke-linecap: round"/>
   </g>
   <g id="line2d_4">
    <path d="M 72.147711 76.32
L 200.702141 76.222821
L 204.100793 75.937928
L 207.477202 75.475288
L 211.946637 74.599167
L 216.381704 73.448397
L 220.785359 72.046603
L 225.160559 70.417412
L 229.51026 68.584448
L 234.916031 66.042682
L 240.292354 63.265582
L 246.7132 59.68739
L 255.238542 54.630499
L 278.655286 40.500709
L 285.08112 36.962386
L 290.462871 34.228661
L 295.875225 31.739499
L 300.231023 29.955264
L 304.61306 28.380707
L 309.024291 27.039455
L 313.467673 25.955132
L 317.946162 25.151365
L 321.329847 24.746866
L 324.73619 24.523437
L 327.020289 24.48
L 327.020289 24.48
" clip-path="url(#p9f266818fa)" style="fill: none; stroke: #76b900; stroke-opacity: 0.088; stroke-width: 4.08; stroke-linecap: round"/>
   </g>
   <g id="line2d_5">
    <path d="M 72.147711 156.96
L 200.702141 157.057179
L 204.100793 157.342072
L 207.477202 157.804712
L 211.946637 158.680833
L 216.381704 159.831603
L 220.785359 161.233397
L 225.160559 162.862588
L 229.51026 164.695552
L 234.916031 167.237318
L 240.292354 170.014418
L 246.7132 173.59261
L 255.238542 178.649501
L 278.655286 192.779291
L 285.08112 196.317614
L 290.462871 199.051339
L 295.875225 201.540501
L 300.231023 203.324736
L 304.61306 204.899293
L 309.024291 206.240545
L 313.467673 207.324868
L 317.946162 208.128635
L 321.329847 208.533134
L 324.73619 208.756563
L 327.020289 208.8
L 327.020289 208.8
" clip-path="url(#p9f266818fa)" style="fill: none; stroke: #76b900; stroke-opacity: 0.176; stroke-width: 2.28; stroke-linecap: round"/>
   </g>
   <g id="line2d_6">
    <path d="M 72.147711 145.44
L 200.702141 145.509414
L 205.228672 145.809306
L 209.7164 146.330689
L 214.168282 147.056688
L 218.587274 147.970428
L 224.069265 149.350903
L 229.51026 150.965394
L 234.916031 152.780941
L 241.364593 155.178584
L 248.84763 158.205785
L 259.492529 162.788106
L 276.519562 170.147241
L 284.007934 173.143987
L 290.462871 175.505242
L 295.875225 177.283215
L 301.323957 178.85354
L 306.814841 180.183256
L 311.241778 181.051643
L 315.702344 181.72807
L 320.199496 182.195663
L 324.73619 182.437545
L 327.020289 182.468571
L 327.020289 182.468571
" clip-path="url(#p9f266818fa)" style="fill: none; stroke: #76b900; stroke-opacity: 0.176; stroke-width: 2.28; stroke-linecap: round"/>
   </g>
   <g id="line2d_7">
    <path d="M 72.147711 87.84
L 200.702141 87.770586
L 205.228672 87.470694
L 209.7164 86.949311
L 214.168282 86.223312
L 218.587274 85.309572
L 224.069265 83.929097
L 229.51026 82.314606
L 234.916031 80.499059
L 241.364593 78.101416
L 248.84763 75.074215
L 259.492529 70.491894
L 276.519562 63.132759
L 284.007934 60.136013
L 290.462871 57.774758
L 295.875225 55.996785
L 301.323957 54.42646
L 306.814841 53.096744
L 311.241778 52.228357
L 315.702344 51.55193
L 320.199496 51.084337
L 324.73619 50.842455
L 327.020289 50.811429
L 327.020289 50.811429
" clip-path="url(#p9f266818fa)" style="fill: none; stroke: #76b900; stroke-opacity: 0.176; stroke-width: 2.28; stroke-linecap: round"/>
   </g>
   <g id="line2d_8">
    <path d="M 72.147711 76.32
L 200.702141 76.222821
L 204.100793 75.937928
L 207.477202 75.475288
L 211.946637 74.599167
L 216.381704 73.448397
L 220.785359 72.046603
L 225.160559 70.417412
L 229.51026 68.584448
L 234.916031 66.042682
L 240.292354 63.265582
L 246.7132 59.68739
L 255.238542 54.630499
L 278.655286 40.500709
L 285.08112 36.962386
L 290.462871 34.228661
L 295.875225 31.739499
L 300.231023 29.955264
L 304.61306 28.380707
L 309.024291 27.039455
L 313.467673 25.955132
L 317.946162 25.151365
L 321.329847 24.746866
L 324.73619 24.523437
L 327.020289 24.48
L 327.020289 24.48
" clip-path="url(#p9f266818fa)" style="fill: none; stroke: #76b900; stroke-opacity: 0.176; stroke-width: 2.28; stroke-linecap: round"/>
   </g>
   <g id="line2d_9">
    <path d="M 72.147711 156.96
L 200.702141 157.057179
L 204.100793 157.342072
L 207.477202 157.804712
L 211.946637 158.680833
L 216.381704 159.831603
L 220.785359 161.233397
L 225.160559 162.862588
L 229.51026 164.695552
L 234.916031 167.237318
L 240.292354 170.014418
L 246.7132 173.59261
L 255.238542 178.649501
L 278.655286 192.779291
L 285.08112 196.317614
L 290.462871 199.051339
L 295.875225 201.540501
L 300.231023 203.324736
L 304.61306 204.899293
L 309.024291 206.240545
L 313.467673 207.324868
L 317.946162 208.128635
L 321.329847 208.533134
L 324.73619 208.756563
L 327.020289 208.8
L 327.020289 208.8
" clip-path="url(#p9f266818fa)" style="fill: none; stroke: #76b900; stroke-opacity: 0.55; stroke-width: 1.2; stroke-linecap: round"/>
   </g>
   <g id="line2d_10">
    <path d="M 72.147711 145.44
L 200.702141 145.509414
L 205.228672 145.809306
L 209.7164 146.330689
L 214.168282 147.056688
L 218.587274 147.970428
L 224.069265 149.350903
L 229.51026 150.965394
L 234.916031 152.780941
L 241.364593 155.178584
L 248.84763 158.205785
L 259.492529 162.788106
L 276.519562 170.147241
L 284.007934 173.143987
L 290.462871 175.505242
L 295.875225 177.283215
L 301.323957 178.85354
L 306.814841 180.183256
L 311.241778 181.051643
L 315.702344 181.72807
L 320.199496 182.195663
L 324.73619 182.437545
L 327.020289 182.468571
L 327.020289 182.468571
" clip-path="url(#p9f266818fa)" style="fill: none; stroke: #76b900; stroke-opacity: 0.55; stroke-width: 1.2; stroke-linecap: round"/>
   </g>
   <g id="line2d_11">
    <path d="M 72.147711 87.84
L 200.702141 87.770586
L 205.228672 87.470694
L 209.7164 86.949311
L 214.168282 86.223312
L 218.587274 85.309572
L 224.069265 83.929097
L 229.51026 82.314606
L 234.916031 80.499059
L 241.364593 78.101416
L 248.84763 75.074215
L 259.492529 70.491894
L 276.519562 63.132759
L 284.007934 60.136013
L 290.462871 57.774758
L 295.875225 55.996785
L 301.323957 54.42646
L 306.814841 53.096744
L 311.241778 52.228357
L 315.702344 51.55193
L 320.199496 51.084337
L 324.73619 50.842455
L 327.020289 50.811429
L 327.020289 50.811429
" clip-path="url(#p9f266818fa)" style="fill: none; stroke: #76b900; stroke-opacity: 0.55; stroke-width: 1.2; stroke-linecap: round"/>
   </g>
   <g id="line2d_12">
    <path d="M 72.147711 76.32
L 200.702141 76.222821
L 204.100793 75.937928
L 207.477202 75.475288
L 211.946637 74.599167
L 216.381704 73.448397
L 220.785359 72.046603
L 225.160559 70.417412
L 229.51026 68.584448
L 234.916031 66.042682
L 240.292354 63.265582
L 246.7132 59.68739
L 255.238542 54.630499
L 278.655286 40.500709
L 285.08112 36.962386
L 290.462871 34.228661
L 295.875225 31.739499
L 300.231023 29.955264
L 304.61306 28.380707
L 309.024291 27.039455
L 313.467673 25.955132
L 317.946162 25.151365
L 321.329847 24.746866
L 324.73619 24.523437
L 327.020289 24.48
L 327.020289 24.48
" clip-path="url(#p9f266818fa)" style="fill: none; stroke: #76b900; stroke-opacity: 0.55; stroke-width: 1.2; stroke-linecap: round"/>
   </g>
   <g id="patch_4">
    <path d="M 72.147711 159.7248
C 72.880945 159.7248 73.584246 159.433483 74.10272 158.915009
C 74.621195 158.396534 74.912511 157.693234 74.912511 156.96
C 74.912511 156.226766 74.621195 155.523466 74.10272 155.004991
C 73.584246 154.486517 72.880945 154.1952 72.147711 154.1952
C 71.414478 154.1952 70.711177 154.486517 70.192703 155.004991
C 69.674228 155.523466 69.382911 156.226766 69.382911 156.96
C 69.382911 157.693234 69.674228 158.396534 70.192703 158.915009
C 70.711177 159.433483 71.414478 159.7248 72.147711 159.7248
z
" clip-path="url(#p9f266818fa)" style="fill: #76b900; opacity: 0.55; stroke: #0a0d18; stroke-width: 0.8; stroke-linejoin: miter"/>
   </g>
   <g id="patch_5">
    <path d="M 327.020289 211.5648
C 327.753522 211.5648 328.456823 211.273483 328.975297 210.755009
C 329.493772 210.236534 329.785089 209.533234 329.785089 208.8
C 329.785089 208.066766 329.493772 207.363466 328.975297 206.844991
C 328.456823 206.326517 327.753522 206.0352 327.020289 206.0352
C 326.287055 206.0352 325.583754 206.326517 325.06528 206.844991
C 324.546805 207.363466 324.255489 208.066766 324.255489 208.8
C 324.255489 209.533234 324.546805 210.236534 325.06528 210.755009
C 325.583754 211.273483 326.287055 211.5648 327.020289 211.5648
z
" clip-path="url(#p9f266818fa)" style="fill: #76b900; opacity: 0.55; stroke: #0a0d18; stroke-width: 0.8; stroke-linejoin: miter"/>
   </g>
   <g id="patch_6">
    <path d="M 72.147711 148.2048
C 72.880945 148.2048 73.584246 147.913483 74.10272 147.395009
C 74.621195 146.876534 74.912511 146.173234 74.912511 145.44
C 74.912511 144.706766 74.621195 144.003466 74.10272 143.484991
C 73.584246 142.966517 72.880945 142.6752 72.147711 142.6752
C 71.414478 142.6752 70.711177 142.966517 70.192703 143.484991
C 69.674228 144.003466 69.382911 144.706766 69.382911 145.44
C 69.382911 146.173234 69.674228 146.876534 70.192703 147.395009
C 70.711177 147.913483 71.414478 148.2048 72.147711 148.2048
z
" clip-path="url(#p9f266818fa)" style="fill: #76b900; opacity: 0.55; stroke: #0a0d18; stroke-width: 0.8; stroke-linejoin: miter"/>
   </g>
   <g id="patch_7">
    <path d="M 327.020289 185.233371
C 327.753522 185.233371 328.456823 184.942055 328.975297 184.42358
C 329.493772 183.905106 329.785089 183.201805 329.785089 182.468571
C 329.785089 181.735338 329.493772 181.032037 328.975297 180.513563
C 328.456823 179.995088 327.753522 179.703771 327.020289 179.703771
C 326.287055 179.703771 325.583754 179.995088 325.06528 180.513563
C 324.546805 181.032037 324.255489 181.735338 324.255489 182.468571
C 324.255489 183.201805 324.546805 183.905106 325.06528 184.42358
C 325.583754 184.942055 326.287055 185.233371 327.020289 185.233371
z
" clip-path="url(#p9f266818fa)" style="fill: #76b900; opacity: 0.55; stroke: #0a0d18; stroke-width: 0.8; stroke-linejoin: miter"/>
   </g>
   <g id="patch_8">
    <path d="M 72.147711 90.6048
C 72.880945 90.6048 73.584246 90.313483 74.10272 89.795009
C 74.621195 89.276534 74.912511 88.573234 74.912511 87.84
C 74.912511 87.106766 74.621195 86.403466 74.10272 85.884991
C 73.584246 85.366517 72.880945 85.0752 72.147711 85.0752
C 71.414478 85.0752 70.711177 85.366517 70.192703 85.884991
C 69.674228 86.403466 69.382911 87.106766 69.382911 87.84
C 69.382911 88.573234 69.674228 89.276534 70.192703 89.795009
C 70.711177 90.313483 71.414478 90.6048 72.147711 90.6048
z
" clip-path="url(#p9f266818fa)" style="fill: #76b900; opacity: 0.55; stroke: #0a0d18; stroke-width: 0.8; stroke-linejoin: miter"/>
   </g>
   <g id="patch_9">
    <path d="M 327.020289 53.576229
C 327.753522 53.576229 328.456823 53.284912 328.975297 52.766437
C 329.493772 52.247963 329.785089 51.544662 329.785089 50.811429
C 329.785089 50.078195 329.493772 49.374894 328.975297 48.85642
C 328.456823 48.337945 327.753522 48.046629 327.020289 48.046629
C 326.287055 48.046629 325.583754 48.337945 325.06528 48.85642
C 324.546805 49.374894 324.255489 50.078195 324.255489 50.811429
C 324.255489 51.544662 324.546805 52.247963 325.06528 52.766437
C 325.583754 53.284912 326.287055 53.576229 327.020289 53.576229
z
" clip-path="url(#p9f266818fa)" style="fill: #76b900; opacity: 0.55; stroke: #0a0d18; stroke-width: 0.8; stroke-linejoin: miter"/>
   </g>
   <g id="patch_10">
    <path d="M 72.147711 79.0848
C 72.880945 79.0848 73.584246 78.793483 74.10272 78.275009
C 74.621195 77.756534 74.912511 77.053234 74.912511 76.32
C 74.912511 75.586766 74.621195 74.883466 74.10272 74.364991
C 73.584246 73.846517 72.880945 73.5552 72.147711 73.5552
C 71.414478 73.5552 70.711177 73.846517 70.192703 74.364991
C 69.674228 74.883466 69.382911 75.586766 69.382911 76.32
C 69.382911 77.053234 69.674228 77.756534 70.192703 78.275009
C 70.711177 78.793483 71.414478 79.0848 72.147711 79.0848
z
" clip-path="url(#p9f266818fa)" style="fill: #76b900; opacity: 0.55; stroke: #0a0d18; stroke-width: 0.8; stroke-linejoin: miter"/>
   </g>
   <g id="patch_11">
    <path d="M 327.020289 27.2448
C 327.753522 27.2448 328.456823 26.953483 328.975297 26.435009
C 329.493772 25.916534 329.785089 25.213234 329.785089 24.48
C 329.785089 23.746766 329.493772 23.043466 328.975297 22.524991
C 328.456823 22.006517 327.753522 21.7152 327.020289 21.7152
C 326.287055 21.7152 325.583754 22.006517 325.06528 22.524991
C 324.546805 23.043466 324.255489 23.746766 324.255489 24.48
C 324.255489 25.213234 324.546805 25.916534 325.06528 26.435009
C 325.583754 26.953483 326.287055 27.2448 327.020289 27.2448
z
" clip-path="url(#p9f266818fa)" style="fill: #76b900; opacity: 0.55; stroke: #0a0d18; stroke-width: 0.8; stroke-linejoin: miter"/>
   </g>
   <g id="line2d_13">
    <path d="M 72.147711 133.92
L 201.837573 133.993619
L 207.477202 134.28202
L 213.058511 134.770157
L 219.687229 135.591732
L 226.250259 136.638278
L 233.837418 138.097998
L 242.435931 140.014635
L 253.109932 142.664357
L 284.007934 150.542392
L 292.623817 152.399544
L 300.231023 153.790601
L 306.814841 154.765954
L 313.467673 155.504944
L 319.071616 155.915559
L 324.73619 156.118527
L 327.020289 156.137143
L 327.020289 156.137143
" clip-path="url(#p9f266818fa)" style="fill: none; stroke: #c8ff7a; stroke-opacity: 0.16; stroke-width: 5.44; stroke-linecap: round"/>
   </g>
   <g id="line2d_14">
    <path d="M 72.147711 122.4
L 206.354127 122.495909
L 216.381704 122.810229
L 227.338412 123.370725
L 240.292354 124.264917
L 258.429321 125.776511
L 286.155299 128.103101
L 299.139729 128.962487
L 310.132007 129.482377
L 320.199496 129.751133
L 327.020289 129.805714
L 327.020289 129.805714
" clip-path="url(#p9f266818fa)" style="fill: none; stroke: #c8ff7a; stroke-opacity: 0.16; stroke-width: 5.44; stroke-linecap: round"/>
   </g>
   <g id="line2d_15">
    <path d="M 72.147711 110.88
L 206.354127 110.784091
L 216.381704 110.469771
L 227.338412 109.909275
L 240.292354 109.015083
L 258.429321 107.503489
L 286.155299 105.176899
L 299.139729 104.317513
L 310.132007 103.797623
L 320.199496 103.528867
L 327.020289 103.474286
L 327.020289 103.474286
" clip-path="url(#p9f266818fa)" style="fill: none; stroke: #c8ff7a; stroke-opacity: 0.16; stroke-width: 5.44; stroke-linecap: round"/>
   </g>
   <g id="line2d_16">
    <path d="M 72.147711 99.36
L 201.837573 99.286381
L 207.477202 98.99798
L 213.058511 98.509843
L 219.687229 97.688268
L 226.250259 96.641722
L 233.837418 95.182002
L 242.435931 93.265365
L 253.109932 90.615643
L 284.007934 82.737608
L 292.623817 80.880456
L 300.231023 79.489399
L 306.814841 78.514046
L 313.467673 77.775056
L 319.071616 77.364441
L 324.73619 77.161473
L 327.020289 77.142857
L 327.020289 77.142857
" clip-path="url(#p9f266818fa)" style="fill: none; stroke: #c8ff7a; stroke-opacity: 0.16; stroke-width: 5.44; stroke-linecap: round"/>
   </g>
   <g id="line2d_17">
    <path d="M 72.147711 133.92
L 201.837573 133.993619
L 207.477202 134.28202
L 213.058511 134.770157
L 219.687229 135.591732
L 226.250259 136.638278
L 233.837418 138.097998
L 242.435931 140.014635
L 253.109932 142.664357
L 284.007934 150.542392
L 292.623817 152.399544
L 300.231023 153.790601
L 306.814841 154.765954
L 313.467673 155.504944
L 319.071616 155.915559
L 324.73619 156.118527
L 327.020289 156.137143
L 327.020289 156.137143
" clip-path="url(#p9f266818fa)" style="fill: none; stroke: #c8ff7a; stroke-opacity: 0.32; stroke-width: 3.04; stroke-linecap: round"/>
   </g>
   <g id="line2d_18">
    <path d="M 72.147711 122.4
L 206.354127 122.495909
L 216.381704 122.810229
L 227.338412 123.370725
L 240.292354 124.264917
L 258.429321 125.776511
L 286.155299 128.103101
L 299.139729 128.962487
L 310.132007 129.482377
L 320.199496 129.751133
L 327.020289 129.805714
L 327.020289 129.805714
" clip-path="url(#p9f266818fa)" style="fill: none; stroke: #c8ff7a; stroke-opacity: 0.32; stroke-width: 3.04; stroke-linecap: round"/>
   </g>
   <g id="line2d_19">
    <path d="M 72.147711 110.88
L 206.354127 110.784091
L 216.381704 110.469771
L 227.338412 109.909275
L 240.292354 109.015083
L 258.429321 107.503489
L 286.155299 105.176899
L 299.139729 104.317513
L 310.132007 103.797623
L 320.199496 103.528867
L 327.020289 103.474286
L 327.020289 103.474286
" clip-path="url(#p9f266818fa)" style="fill: none; stroke: #c8ff7a; stroke-opacity: 0.32; stroke-width: 3.04; stroke-linecap: round"/>
   </g>
   <g id="line2d_20">
    <path d="M 72.147711 99.36
L 201.837573 99.286381
L 207.477202 98.99798
L 213.058511 98.509843
L 219.687229 97.688268
L 226.250259 96.641722
L 233.837418 95.182002
L 242.435931 93.265365
L 253.109932 90.615643
L 284.007934 82.737608
L 292.623817 80.880456
L 300.231023 79.489399
L 306.814841 78.514046
L 313.467673 77.775056
L 319.071616 77.364441
L 324.73619 77.161473
L 327.020289 77.142857
L 327.020289 77.142857
" clip-path="url(#p9f266818fa)" style="fill: none; stroke: #c8ff7a; stroke-opacity: 0.32; stroke-width: 3.04; stroke-linecap: round"/>
   </g>
   <g id="line2d_21">
    <path d="M 72.147711 133.92
L 201.837573 133.993619
L 207.477202 134.28202
L 213.058511 134.770157
L 219.687229 135.591732
L 226.250259 136.638278
L 233.837418 138.097998
L 242.435931 140.014635
L 253.109932 142.664357
L 284.007934 150.542392
L 292.623817 152.399544
L 300.231023 153.790601
L 306.814841 154.765954
L 313.467673 155.504944
L 319.071616 155.915559
L 324.73619 156.118527
L 327.020289 156.137143
L 327.020289 156.137143
" clip-path="url(#p9f266818fa)" style="fill: none; stroke: #c8ff7a; stroke-width: 1.6; stroke-linecap: round"/>
   </g>
   <g id="line2d_22">
    <path d="M 72.147711 122.4
L 206.354127 122.495909
L 216.381704 122.810229
L 227.338412 123.370725
L 240.292354 124.264917
L 258.429321 125.776511
L 286.155299 128.103101
L 299.139729 128.962487
L 310.132007 129.482377
L 320.199496 129.751133
L 327.020289 129.805714
L 327.020289 129.805714
" clip-path="url(#p9f266818fa)" style="fill: none; stroke: #c8ff7a; stroke-width: 1.6; stroke-linecap: round"/>
   </g>
   <g id="line2d_23">
    <path d="M 72.147711 110.88
L 206.354127 110.784091
L 216.381704 110.469771
L 227.338412 109.909275
L 240.292354 109.015083
L 258.429321 107.503489
L 286.155299 105.176899
L 299.139729 104.317513
L 310.132007 103.797623
L 320.199496 103.528867
L 327.020289 103.474286
L 327.020289 103.474286
" clip-path="url(#p9f266818fa)" style="fill: none; stroke: #c8ff7a; stroke-width: 1.6; stroke-linecap: round"/>
   </g>
   <g id="line2d_24">
    <path d="M 72.147711 99.36
L 201.837573 99.286381
L 207.477202 98.99798
L 213.058511 98.509843
L 219.687229 97.688268
L 226.250259 96.641722
L 233.837418 95.182002
L 242.435931 93.265365
L 253.109932 90.615643
L 284.007934 82.737608
L 292.623817 80.880456
L 300.231023 79.489399
L 306.814841 78.514046
L 313.467673 77.775056
L 319.071616 77.364441
L 324.73619 77.161473
L 327.020289 77.142857
L 327.020289 77.142857
" clip-path="url(#p9f266818fa)" style="fill: none; stroke: #c8ff7a; stroke-width: 1.6; stroke-linecap: round"/>
   </g>
   <g id="patch_12">
    <path d="M 72.147711 136.6848
C 72.880945 136.6848 73.584246 136.393483 74.10272 135.875009
C 74.621195 135.356534 74.912511 134.653234 74.912511 133.92
C 74.912511 133.186766 74.621195 132.483466 74.10272 131.964991
C 73.584246 131.446517 72.880945 131.1552 72.147711 131.1552
C 71.414478 131.1552 70.711177 131.446517 70.192703 131.964991
C 69.674228 132.483466 69.382911 133.186766 69.382911 133.92
C 69.382911 134.653234 69.674228 135.356534 70.192703 135.875009
C 70.711177 136.393483 71.414478 136.6848 72.147711 136.6848
z
" clip-path="url(#p9f266818fa)" style="fill: #c8ff7a; stroke: #0a0d18; stroke-width: 0.8; stroke-linejoin: miter"/>
   </g>
   <g id="patch_13">
    <path d="M 327.020289 158.901943
C 327.753522 158.901943 328.456823 158.610626 328.975297 158.092152
C 329.493772 157.573677 329.785089 156.870376 329.785089 156.137143
C 329.785089 155.403909 329.493772 154.700608 328.975297 154.182134
C 328.456823 153.66366 327.753522 153.372343 327.020289 153.372343
C 326.287055 153.372343 325.583754 153.66366 325.06528 154.182134
C 324.546805 154.700608 324.255489 155.403909 324.255489 156.137143
C 324.255489 156.870376 324.546805 157.573677 325.06528 158.092152
C 325.583754 158.610626 326.287055 158.901943 327.020289 158.901943
z
" clip-path="url(#p9f266818fa)" style="fill: #c8ff7a; stroke: #0a0d18; stroke-width: 0.8; stroke-linejoin: miter"/>
   </g>
   <g id="patch_14">
    <path d="M 72.147711 125.1648
C 72.880945 125.1648 73.584246 124.873483 74.10272 124.355009
C 74.621195 123.836534 74.912511 123.133234 74.912511 122.4
C 74.912511 121.666766 74.621195 120.963466 74.10272 120.444991
C 73.584246 119.926517 72.880945 119.6352 72.147711 119.6352
C 71.414478 119.6352 70.711177 119.926517 70.192703 120.444991
C 69.674228 120.963466 69.382911 121.666766 69.382911 122.4
C 69.382911 123.133234 69.674228 123.836534 70.192703 124.355009
C 70.711177 124.873483 71.414478 125.1648 72.147711 125.1648
z
" clip-path="url(#p9f266818fa)" style="fill: #c8ff7a; stroke: #0a0d18; stroke-width: 0.8; stroke-linejoin: miter"/>
   </g>
   <g id="patch_15">
    <path d="M 327.020289 132.570514
C 327.753522 132.570514 328.456823 132.279198 328.975297 131.760723
C 329.493772 131.242249 329.785089 130.538948 329.785089 129.805714
C 329.785089 129.072481 329.493772 128.36918 328.975297 127.850705
C 328.456823 127.332231 327.753522 127.040914 327.020289 127.040914
C 326.287055 127.040914 325.583754 127.332231 325.06528 127.850705
C 324.546805 128.36918 324.255489 129.072481 324.255489 129.805714
C 324.255489 130.538948 324.546805 131.242249 325.06528 131.760723
C 325.583754 132.279198 326.287055 132.570514 327.020289 132.570514
z
" clip-path="url(#p9f266818fa)" style="fill: #c8ff7a; stroke: #0a0d18; stroke-width: 0.8; stroke-linejoin: miter"/>
   </g>
   <g id="patch_16">
    <path d="M 72.147711 113.6448
C 72.880945 113.6448 73.584246 113.353483 74.10272 112.835009
C 74.621195 112.316534 74.912511 111.613234 74.912511 110.88
C 74.912511 110.146766 74.621195 109.443466 74.10272 108.924991
C 73.584246 108.406517 72.880945 108.1152 72.147711 108.1152
C 71.414478 108.1152 70.711177 108.406517 70.192703 108.924991
C 69.674228 109.443466 69.382911 110.146766 69.382911 110.88
C 69.382911 111.613234 69.674228 112.316534 70.192703 112.835009
C 70.711177 113.353483 71.414478 113.6448 72.147711 113.6448
z
" clip-path="url(#p9f266818fa)" style="fill: #c8ff7a; stroke: #0a0d18; stroke-width: 0.8; stroke-linejoin: miter"/>
   </g>
   <g id="patch_17">
    <path d="M 327.020289 106.239086
C 327.753522 106.239086 328.456823 105.947769 328.975297 105.429295
C 329.493772 104.91082 329.785089 104.207519 329.785089 103.474286
C 329.785089 102.741052 329.493772 102.037751 328.975297 101.519277
C 328.456823 101.000802 327.753522 100.709486 327.020289 100.709486
C 326.287055 100.709486 325.583754 101.000802 325.06528 101.519277
C 324.546805 102.037751 324.255489 102.741052 324.255489 103.474286
C 324.255489 104.207519 324.546805 104.91082 325.06528 105.429295
C 325.583754 105.947769 326.287055 106.239086 327.020289 106.239086
z
" clip-path="url(#p9f266818fa)" style="fill: #c8ff7a; stroke: #0a0d18; stroke-width: 0.8; stroke-linejoin: miter"/>
   </g>
   <g id="patch_18">
    <path d="M 72.147711 102.1248
C 72.880945 102.1248 73.584246 101.833483 74.10272 101.315009
C 74.621195 100.796534 74.912511 100.093234 74.912511 99.36
C 74.912511 98.626766 74.621195 97.923466 74.10272 97.404991
C 73.584246 96.886517 72.880945 96.5952 72.147711 96.5952
C 71.414478 96.5952 70.711177 96.886517 70.192703 97.404991
C 69.674228 97.923466 69.382911 98.626766 69.382911 99.36
C 69.382911 100.093234 69.674228 100.796534 70.192703 101.315009
C 70.711177 101.833483 71.414478 102.1248 72.147711 102.1248
z
" clip-path="url(#p9f266818fa)" style="fill: #c8ff7a; stroke: #0a0d18; stroke-width: 0.8; stroke-linejoin: miter"/>
   </g>
   <g id="patch_19">
    <path d="M 327.020289 79.907657
C 327.753522 79.907657 328.456823 79.61634 328.975297 79.097866
C 329.493772 78.579392 329.785089 77.876091 329.785089 77.142857
C 329.785089 76.409624 329.493772 75.706323 328.975297 75.187848
C 328.456823 74.669374 327.753522 74.378057 327.020289 74.378057
C 326.287055 74.378057 325.583754 74.669374 325.06528 75.187848
C 324.546805 75.706323 324.255489 76.409624 324.255489 77.142857
C 324.255489 77.876091 324.546805 78.579392 325.06528 79.097866
C 325.583754 79.61634 326.287055 79.907657 327.020289 79.907657
z
" clip-path="url(#p9f266818fa)" style="fill: #c8ff7a; stroke: #0a0d18; stroke-width: 0.8; stroke-linejoin: miter"/>
   </g>
   <g id="patch_20">
    <path d="M 262.508289 156.96
L 248.541031 165.024
L 248.541031 148.896
L 262.508289 140.832
z
" clip-path="url(#p9f266818fa)" style="fill: #a6f24a; stroke: #0a0d18; stroke-width: 0.42; stroke-linejoin: miter"/>
   </g>
   <g id="patch_21">
    <path d="M 262.508289 140.832
L 248.541031 148.896
L 248.541031 132.768
L 262.508289 124.704
z
" clip-path="url(#p9f266818fa)" style="fill: #a6f24a; stroke: #0a0d18; stroke-width: 0.42; stroke-linejoin: miter"/>
   </g>
   <g id="patch_22">
    <path d="M 262.508289 124.704
L 248.541031 132.768
L 248.541031 116.64
L 262.508289 108.576
z
" clip-path="url(#p9f266818fa)" style="fill: #a6f24a; stroke: #0a0d18; stroke-width: 0.42; stroke-linejoin: miter"/>
   </g>
   <g id="patch_23">
    <path d="M 262.508289 108.576
L 248.541031 116.64
L 248.541031 100.512
L 262.508289 92.448
z
" clip-path="url(#p9f266818fa)" style="fill: #a6f24a; stroke: #0a0d18; stroke-width: 0.42; stroke-linejoin: miter"/>
   </g>
   <g id="patch_24">
    <path d="M 262.508289 92.448
L 248.541031 100.512
L 248.541031 84.384
L 262.508289 76.32
z
" clip-path="url(#p9f266818fa)" style="fill: #a6f24a; stroke: #0a0d18; stroke-width: 0.42; stroke-linejoin: miter"/>
   </g>
   <g id="patch_25">
    <path d="M 248.541031 165.024
L 234.573773 173.088
L 234.573773 156.96
L 248.541031 148.896
z
" clip-path="url(#p9f266818fa)" style="fill: #1f3300; stroke: #0a0d18; stroke-width: 0.42; stroke-linejoin: miter"/>
   </g>
   <g id="patch_26">
    <path d="M 248.541031 148.896
L 234.573773 156.96
L 234.573773 140.832
L 248.541031 132.768
z
" clip-path="url(#p9f266818fa)" style="fill: #a6f24a; stroke: #0a0d18; stroke-width: 0.42; stroke-linejoin: miter"/>
   </g>
   <g id="patch_27">
    <path d="M 248.541031 132.768
L 234.573773 140.832
L 234.573773 124.704
L 248.541031 116.64
z
" clip-path="url(#p9f266818fa)" style="fill: #1f3300; stroke: #0a0d18; stroke-width: 0.42; stroke-linejoin: miter"/>
   </g>
   <g id="patch_28">
    <path d="M 248.541031 116.64
L 234.573773 124.704
L 234.573773 108.576
L 248.541031 100.512
z
" clip-path="url(#p9f266818fa)" style="fill: #1f3300; stroke: #0a0d18; stroke-width: 0.42; stroke-linejoin: miter"/>
   </g>
   <g id="patch_29">
    <path d="M 248.541031 100.512
L 234.573773 108.576
L 234.573773 92.448
L 248.541031 84.384
z
" clip-path="url(#p9f266818fa)" style="fill: #1f3300; stroke: #0a0d18; stroke-width: 0.42; stroke-linejoin: miter"/>
   </g>
   <g id="patch_30">
    <path d="M 234.573773 173.088
L 220.606515 181.152
L 220.606515 165.024
L 234.573773 156.96
z
" clip-path="url(#p9f266818fa)" style="fill: #1f3300; stroke: #0a0d18; stroke-width: 0.42; stroke-linejoin: miter"/>
   </g>
   <g id="patch_31">
    <path d="M 234.573773 156.96
L 220.606515 165.024
L 220.606515 148.896
L 234.573773 140.832
z
" clip-path="url(#p9f266818fa)" style="fill: #1f3300; stroke: #0a0d18; stroke-width: 0.42; stroke-linejoin: miter"/>
   </g>
   <g id="patch_32">
    <path d="M 234.573773 140.832
L 220.606515 148.896
L 220.606515 132.768
L 234.573773 124.704
z
" clip-path="url(#p9f266818fa)" style="fill: #a6f24a; stroke: #0a0d18; stroke-width: 0.42; stroke-linejoin: miter"/>
   </g>
   <g id="patch_33">
    <path d="M 234.573773 124.704
L 220.606515 132.768
L 220.606515 116.64
L 234.573773 108.576
z
" clip-path="url(#p9f266818fa)" style="fill: #1f3300; stroke: #0a0d18; stroke-width: 0.42; stroke-linejoin: miter"/>
   </g>
   <g id="patch_34">
    <path d="M 234.573773 108.576
L 220.606515 116.64
L 220.606515 100.512
L 234.573773 92.448
z
" clip-path="url(#p9f266818fa)" style="fill: #1f3300; stroke: #0a0d18; stroke-width: 0.42; stroke-linejoin: miter"/>
   </g>
   <g id="patch_35">
    <path d="M 220.606515 181.152
L 206.639258 189.216
L 206.639258 173.088
L 220.606515 165.024
z
" clip-path="url(#p9f266818fa)" style="fill: #1f3300; stroke: #0a0d18; stroke-width: 0.42; stroke-linejoin: miter"/>
   </g>
   <g id="patch_36">
    <path d="M 220.606515 165.024
L 206.639258 173.088
L 206.639258 156.96
L 220.606515 148.896
z
" clip-path="url(#p9f266818fa)" style="fill: #1f3300; stroke: #0a0d18; stroke-width: 0.42; stroke-linejoin: miter"/>
   </g>
   <g id="patch_37">
    <path d="M 220.606515 148.896
L 206.639258 156.96
L 206.639258 140.832
L 220.606515 132.768
z
" clip-path="url(#p9f266818fa)" style="fill: #1f3300; stroke: #0a0d18; stroke-width: 0.42; stroke-linejoin: miter"/>
   </g>
   <g id="patch_38">
    <path d="M 220.606515 132.768
L 206.639258 140.832
L 206.639258 124.704
L 220.606515 116.64
z
" clip-path="url(#p9f266818fa)" style="fill: #a6f24a; stroke: #0a0d18; stroke-width: 0.42; stroke-linejoin: miter"/>
   </g>
   <g id="patch_39">
    <path d="M 220.606515 116.64
L 206.639258 124.704
L 206.639258 108.576
L 220.606515 100.512
z
" clip-path="url(#p9f266818fa)" style="fill: #1f3300; stroke: #0a0d18; stroke-width: 0.42; stroke-linejoin: miter"/>
   </g>
   <g id="patch_40">
    <path d="M 206.639258 189.216
L 192.672 197.28
L 192.672 181.152
L 206.639258 173.088
z
" clip-path="url(#p9f266818fa)" style="fill: #a6f24a; stroke: #0a0d18; stroke-width: 0.42; stroke-linejoin: miter"/>
   </g>
   <g id="patch_41">
    <path d="M 206.639258 173.088
L 192.672 181.152
L 192.672 165.024
L 206.639258 156.96
z
" clip-path="url(#p9f266818fa)" style="fill: #a6f24a; stroke: #0a0d18; stroke-width: 0.42; stroke-linejoin: miter"/>
   </g>
   <g id="patch_42">
    <path d="M 206.639258 156.96
L 192.672 165.024
L 192.672 148.896
L 206.639258 140.832
z
" clip-path="url(#p9f266818fa)" style="fill: #a6f24a; stroke: #0a0d18; stroke-width: 0.42; stroke-linejoin: miter"/>
   </g>
   <g id="patch_43">
    <path d="M 206.639258 140.832
L 192.672 148.896
L 192.672 132.768
L 206.639258 124.704
z
" clip-path="url(#p9f266818fa)" style="fill: #a6f24a; stroke: #0a0d18; stroke-width: 0.42; stroke-linejoin: miter"/>
   </g>
   <g id="patch_44">
    <path d="M 206.639258 124.704
L 192.672 132.768
L 192.672 116.64
L 206.639258 108.576
z
" clip-path="url(#p9f266818fa)" style="fill: #a6f24a; stroke: #0a0d18; stroke-width: 0.42; stroke-linejoin: miter"/>
   </g>
   <g id="patch_45">
    <path d="M 122.835711 156.96
L 136.802969 165.024
L 136.802969 148.896
L 122.835711 140.832
z
" clip-path="url(#p9f266818fa)" style="fill: #76b900; stroke: #0a0d18; stroke-width: 0.42; stroke-linejoin: miter"/>
   </g>
   <g id="patch_46">
    <path d="M 122.835711 140.832
L 136.802969 148.896
L 136.802969 132.768
L 122.835711 124.704
z
" clip-path="url(#p9f266818fa)" style="fill: #76b900; stroke: #0a0d18; stroke-width: 0.42; stroke-linejoin: miter"/>
   </g>
   <g id="patch_47">
    <path d="M 122.835711 124.704
L 136.802969 132.768
L 136.802969 116.64
L 122.835711 108.576
z
" clip-path="url(#p9f266818fa)" style="fill: #76b900; stroke: #0a0d18; stroke-width: 0.42; stroke-linejoin: miter"/>
   </g>
   <g id="patch_48">
    <path d="M 122.835711 108.576
L 136.802969 116.64
L 136.802969 100.512
L 122.835711 92.448
z
" clip-path="url(#p9f266818fa)" style="fill: #76b900; stroke: #0a0d18; stroke-width: 0.42; stroke-linejoin: miter"/>
   </g>
   <g id="patch_49">
    <path d="M 122.835711 92.448
L 136.802969 100.512
L 136.802969 84.384
L 122.835711 76.32
z
" clip-path="url(#p9f266818fa)" style="fill: #76b900; stroke: #0a0d18; stroke-width: 0.42; stroke-linejoin: miter"/>
   </g>
   <g id="patch_50">
    <path d="M 136.802969 165.024
L 150.770227 173.088
L 150.770227 156.96
L 136.802969 148.896
z
" clip-path="url(#p9f266818fa)" style="fill: #13200a; stroke: #0a0d18; stroke-width: 0.42; stroke-linejoin: miter"/>
   </g>
   <g id="patch_51">
    <path d="M 136.802969 148.896
L 150.770227 156.96
L 150.770227 140.832
L 136.802969 132.768
z
" clip-path="url(#p9f266818fa)" style="fill: #76b900; stroke: #0a0d18; stroke-width: 0.42; stroke-linejoin: miter"/>
   </g>
   <g id="patch_52">
    <path d="M 136.802969 132.768
L 150.770227 140.832
L 150.770227 124.704
L 136.802969 116.64
z
" clip-path="url(#p9f266818fa)" style="fill: #13200a; stroke: #0a0d18; stroke-width: 0.42; stroke-linejoin: miter"/>
   </g>
   <g id="patch_53">
    <path d="M 136.802969 116.64
L 150.770227 124.704
L 150.770227 108.576
L 136.802969 100.512
z
" clip-path="url(#p9f266818fa)" style="fill: #13200a; stroke: #0a0d18; stroke-width: 0.42; stroke-linejoin: miter"/>
   </g>
   <g id="patch_54">
    <path d="M 136.802969 100.512
L 150.770227 108.576
L 150.770227 92.448
L 136.802969 84.384
z
" clip-path="url(#p9f266818fa)" style="fill: #13200a; stroke: #0a0d18; stroke-width: 0.42; stroke-linejoin: miter"/>
   </g>
   <g id="patch_55">
    <path d="M 150.770227 173.088
L 164.737485 181.152
L 164.737485 165.024
L 150.770227 156.96
z
" clip-path="url(#p9f266818fa)" style="fill: #13200a; stroke: #0a0d18; stroke-width: 0.42; stroke-linejoin: miter"/>
   </g>
   <g id="patch_56">
    <path d="M 150.770227 156.96
L 164.737485 165.024
L 164.737485 148.896
L 150.770227 140.832
z
" clip-path="url(#p9f266818fa)" style="fill: #13200a; stroke: #0a0d18; stroke-width: 0.42; stroke-linejoin: miter"/>
   </g>
   <g id="patch_57">
    <path d="M 150.770227 140.832
L 164.737485 148.896
L 164.737485 132.768
L 150.770227 124.704
z
" clip-path="url(#p9f266818fa)" style="fill: #76b900; stroke: #0a0d18; stroke-width: 0.42; stroke-linejoin: miter"/>
   </g>
   <g id="patch_58">
    <path d="M 150.770227 124.704
L 164.737485 132.768
L 164.737485 116.64
L 150.770227 108.576
z
" clip-path="url(#p9f266818fa)" style="fill: #13200a; stroke: #0a0d18; stroke-width: 0.42; stroke-linejoin: miter"/>
   </g>
   <g id="patch_59">
    <path d="M 150.770227 108.576
L 164.737485 116.64
L 164.737485 100.512
L 150.770227 92.448
z
" clip-path="url(#p9f266818fa)" style="fill: #13200a; stroke: #0a0d18; stroke-width: 0.42; stroke-linejoin: miter"/>
   </g>
   <g id="patch_60">
    <path d="M 164.737485 181.152
L 178.704742 189.216
L 178.704742 173.088
L 164.737485 165.024
z
" clip-path="url(#p9f266818fa)" style="fill: #13200a; stroke: #0a0d18; stroke-width: 0.42; stroke-linejoin: miter"/>
   </g>
   <g id="patch_61">
    <path d="M 164.737485 165.024
L 178.704742 173.088
L 178.704742 156.96
L 164.737485 148.896
z
" clip-path="url(#p9f266818fa)" style="fill: #76b900; stroke: #0a0d18; stroke-width: 0.42; stroke-linejoin: miter"/>
   </g>
   <g id="patch_62">
    <path d="M 164.737485 148.896
L 178.704742 156.96
L 178.704742 140.832
L 164.737485 132.768
z
" clip-path="url(#p9f266818fa)" style="fill: #13200a; stroke: #0a0d18; stroke-width: 0.42; stroke-linejoin: miter"/>
   </g>
   <g id="patch_63">
    <path d="M 164.737485 132.768
L 178.704742 140.832
L 178.704742 124.704
L 164.737485 116.64
z
" clip-path="url(#p9f266818fa)" style="fill: #13200a; stroke: #0a0d18; stroke-width: 0.42; stroke-linejoin: miter"/>
   </g>
   <g id="patch_64">
    <path d="M 164.737485 116.64
L 178.704742 124.704
L 178.704742 108.576
L 164.737485 100.512
z
" clip-path="url(#p9f266818fa)" style="fill: #13200a; stroke: #0a0d18; stroke-width: 0.42; stroke-linejoin: miter"/>
   </g>
   <g id="patch_65">
    <path d="M 178.704742 189.216
L 192.672 197.28
L 192.672 181.152
L 178.704742 173.088
z
" clip-path="url(#p9f266818fa)" style="fill: #76b900; stroke: #0a0d18; stroke-width: 0.42; stroke-linejoin: miter"/>
   </g>
   <g id="patch_66">
    <path d="M 178.704742 173.088
L 192.672 181.152
L 192.672 165.024
L 178.704742 156.96
z
" clip-path="url(#p9f266818fa)" style="fill: #76b900; stroke: #0a0d18; stroke-width: 0.42; stroke-linejoin: miter"/>
   </g>
   <g id="patch_67">
    <path d="M 178.704742 156.96
L 192.672 165.024
L 192.672 148.896
L 178.704742 140.832
z
" clip-path="url(#p9f266818fa)" style="fill: #76b900; stroke: #0a0d18; stroke-width: 0.42; stroke-linejoin: miter"/>
   </g>
   <g id="patch_68">
    <path d="M 178.704742 140.832
L 192.672 148.896
L 192.672 132.768
L 178.704742 124.704
z
" clip-path="url(#p9f266818fa)" style="fill: #76b900; stroke: #0a0d18; stroke-width: 0.42; stroke-linejoin: miter"/>
   </g>
   <g id="patch_69">
    <path d="M 178.704742 124.704
L 192.672 132.768
L 192.672 116.64
L 178.704742 108.576
z
" clip-path="url(#p9f266818fa)" style="fill: #76b900; stroke: #0a0d18; stroke-width: 0.42; stroke-linejoin: miter"/>
   </g>
   <g id="patch_70">
    <path d="M 192.672 36
L 206.639258 44.064
L 192.672 52.128
L 178.704742 44.064
z
" clip-path="url(#p9f266818fa)" style="fill: #2e4a00; stroke: #0a0d18; stroke-width: 0.42; stroke-linejoin: miter"/>
   </g>
   <g id="patch_71">
    <path d="M 178.704742 44.064
L 192.672 52.128
L 178.704742 60.192
L 164.737485 52.128
z
" clip-path="url(#p9f266818fa)" style="fill: #c8ff7a; stroke: #0a0d18; stroke-width: 0.42; stroke-linejoin: miter"/>
   </g>
   <g id="patch_72">
    <path d="M 164.737485 52.128
L 178.704742 60.192
L 164.737485 68.256
L 150.770227 60.192
z
" clip-path="url(#p9f266818fa)" style="fill: #c8ff7a; stroke: #0a0d18; stroke-width: 0.42; stroke-linejoin: miter"/>
   </g>
   <g id="patch_73">
    <path d="M 150.770227 60.192
L 164.737485 68.256
L 150.770227 76.32
L 136.802969 68.256
z
" clip-path="url(#p9f266818fa)" style="fill: #c8ff7a; stroke: #0a0d18; stroke-width: 0.42; stroke-linejoin: miter"/>
   </g>
   <g id="patch_74">
    <path d="M 136.802969 68.256
L 150.770227 76.32
L 136.802969 84.384
L 122.835711 76.32
z
" clip-path="url(#p9f266818fa)" style="fill: #2e4a00; stroke: #0a0d18; stroke-width: 0.42; stroke-linejoin: miter"/>
   </g>
   <g id="patch_75">
    <path d="M 206.639258 44.064
L 220.606515 52.128
L 206.639258 60.192
L 192.672 52.128
z
" clip-path="url(#p9f266818fa)" style="fill: #c8ff7a; stroke: #0a0d18; stroke-width: 0.42; stroke-linejoin: miter"/>
   </g>
   <g id="patch_76">
    <path d="M 192.672 52.128
L 206.639258 60.192
L 192.672 68.256
L 178.704742 60.192
z
" clip-path="url(#p9f266818fa)" style="fill: #2e4a00; stroke: #0a0d18; stroke-width: 0.42; stroke-linejoin: miter"/>
   </g>
   <g id="patch_77">
    <path d="M 178.704742 60.192
L 192.672 68.256
L 178.704742 76.32
L 164.737485 68.256
z
" clip-path="url(#p9f266818fa)" style="fill: #2e4a00; stroke: #0a0d18; stroke-width: 0.42; stroke-linejoin: miter"/>
   </g>
   <g id="patch_78">
    <path d="M 164.737485 68.256
L 178.704742 76.32
L 164.737485 84.384
L 150.770227 76.32
z
" clip-path="url(#p9f266818fa)" style="fill: #2e4a00; stroke: #0a0d18; stroke-width: 0.42; stroke-linejoin: miter"/>
   </g>
   <g id="patch_79">
    <path d="M 150.770227 76.32
L 164.737485 84.384
L 150.770227 92.448
L 136.802969 84.384
z
" clip-path="url(#p9f266818fa)" style="fill: #c8ff7a; stroke: #0a0d18; stroke-width: 0.42; stroke-linejoin: miter"/>
   </g>
   <g id="patch_80">
    <path d="M 220.606515 52.128
L 234.573773 60.192
L 220.606515 68.256
L 206.639258 60.192
z
" clip-path="url(#p9f266818fa)" style="fill: #c8ff7a; stroke: #0a0d18; stroke-width: 0.42; stroke-linejoin: miter"/>
   </g>
   <g id="patch_81">
    <path d="M 206.639258 60.192
L 220.606515 68.256
L 206.639258 76.32
L 192.672 68.256
z
" clip-path="url(#p9f266818fa)" style="fill: #2e4a00; stroke: #0a0d18; stroke-width: 0.42; stroke-linejoin: miter"/>
   </g>
   <g id="patch_82">
    <path d="M 192.672 68.256
L 206.639258 76.32
L 192.672 84.384
L 178.704742 76.32
z
" clip-path="url(#p9f266818fa)" style="fill: #2e4a00; stroke: #0a0d18; stroke-width: 0.42; stroke-linejoin: miter"/>
   </g>
   <g id="patch_83">
    <path d="M 178.704742 76.32
L 192.672 84.384
L 178.704742 92.448
L 164.737485 84.384
z
" clip-path="url(#p9f266818fa)" style="fill: #2e4a00; stroke: #0a0d18; stroke-width: 0.42; stroke-linejoin: miter"/>
   </g>
   <g id="patch_84">
    <path d="M 164.737485 84.384
L 178.704742 92.448
L 164.737485 100.512
L 150.770227 92.448
z
" clip-path="url(#p9f266818fa)" style="fill: #c8ff7a; stroke: #0a0d18; stroke-width: 0.42; stroke-linejoin: miter"/>
   </g>
   <g id="patch_85">
    <path d="M 234.573773 60.192
L 248.541031 68.256
L 234.573773 76.32
L 220.606515 68.256
z
" clip-path="url(#p9f266818fa)" style="fill: #c8ff7a; stroke: #0a0d18; stroke-width: 0.42; stroke-linejoin: miter"/>
   </g>
   <g id="patch_86">
    <path d="M 220.606515 68.256
L 234.573773 76.32
L 220.606515 84.384
L 206.639258 76.32
z
" clip-path="url(#p9f266818fa)" style="fill: #2e4a00; stroke: #0a0d18; stroke-width: 0.42; stroke-linejoin: miter"/>
   </g>
   <g id="patch_87">
    <path d="M 206.639258 76.32
L 220.606515 84.384
L 206.639258 92.448
L 192.672 84.384
z
" clip-path="url(#p9f266818fa)" style="fill: #2e4a00; stroke: #0a0d18; stroke-width: 0.42; stroke-linejoin: miter"/>
   </g>
   <g id="patch_88">
    <path d="M 192.672 84.384
L 206.639258 92.448
L 192.672 100.512
L 178.704742 92.448
z
" clip-path="url(#p9f266818fa)" style="fill: #2e4a00; stroke: #0a0d18; stroke-width: 0.42; stroke-linejoin: miter"/>
   </g>
   <g id="patch_89">
    <path d="M 178.704742 92.448
L 192.672 100.512
L 178.704742 108.576
L 164.737485 100.512
z
" clip-path="url(#p9f266818fa)" style="fill: #c8ff7a; stroke: #0a0d18; stroke-width: 0.42; stroke-linejoin: miter"/>
   </g>
   <g id="patch_90">
    <path d="M 248.541031 68.256
L 262.508289 76.32
L 248.541031 84.384
L 234.573773 76.32
z
" clip-path="url(#p9f266818fa)" style="fill: #2e4a00; stroke: #0a0d18; stroke-width: 0.42; stroke-linejoin: miter"/>
   </g>
   <g id="patch_91">
    <path d="M 234.573773 76.32
L 248.541031 84.384
L 234.573773 92.448
L 220.606515 84.384
z
" clip-path="url(#p9f266818fa)" style="fill: #2e4a00; stroke: #0a0d18; stroke-width: 0.42; stroke-linejoin: miter"/>
   </g>
   <g id="patch_92">
    <path d="M 220.606515 84.384
L 234.573773 92.448
L 220.606515 100.512
L 206.639258 92.448
z
" clip-path="url(#p9f266818fa)" style="fill: #2e4a00; stroke: #0a0d18; stroke-width: 0.42; stroke-linejoin: miter"/>
   </g>
   <g id="patch_93">
    <path d="M 206.639258 92.448
L 220.606515 100.512
L 206.639258 108.576
L 192.672 100.512
z
" clip-path="url(#p9f266818fa)" style="fill: #2e4a00; stroke: #0a0d18; stroke-width: 0.42; stroke-linejoin: miter"/>
   </g>
   <g id="patch_94">
    <path d="M 192.672 100.512
L 206.639258 108.576
L 192.672 116.64
L 178.704742 108.576
z
" clip-path="url(#p9f266818fa)" style="fill: #2e4a00; stroke: #0a0d18; stroke-width: 0.42; stroke-linejoin: miter"/>
   </g>
   <g id="patch_95">
    <path d="M 122.835711 156.96
L 192.672 197.28
L 192.672 116.64
L 122.835711 76.32
L 122.835711 156.96
z
" clip-path="url(#p9f266818fa)" style="fill: none; stroke: #0a0d18; stroke-width: 1.4; stroke-linejoin: miter"/>
   </g>
   <g id="patch_96">
    <path d="M 262.508289 156.96
L 192.672 197.28
L 192.672 116.64
L 262.508289 76.32
L 262.508289 156.96
z
" clip-path="url(#p9f266818fa)" style="fill: none; stroke: #0a0d18; stroke-width: 1.4; stroke-linejoin: miter"/>
   </g>
   <g id="patch_97">
    <path d="M 192.672 36
L 262.508289 76.32
L 192.672 116.64
L 122.835711 76.32
L 192.672 36
z
" clip-path="url(#p9f266818fa)" style="fill: none; stroke: #0a0d18; stroke-width: 1.4; stroke-linejoin: miter"/>
   </g>
   <g id="text_1">
    <!-- WarpConvNet -->
    <g style="fill: #e8eef9" transform="translate(430.700289 105.74125) scale(0.44 -0.44)">
     <defs>
      <path id="DejaVuSans-Bold-57" d="M 191 4666
L 1344 4666
L 2150 1275
L 2950 4666
L 4109 4666
L 4909 1275
L 5716 4666
L 6859 4666
L 5759 0
L 4372 0
L 3525 3547
L 2688 0
L 1300 0
L 191 4666
z
" transform="scale(0.015625)"/>
      <path id="DejaVuSans-Bold-61" d="M 2106 1575
Q 1756 1575 1579 1456
Q 1403 1338 1403 1106
Q 1403 894 1545 773
Q 1688 653 1941 653
Q 2256 653 2472 879
Q 2688 1106 2688 1447
L 2688 1575
L 2106 1575
z
M 3816 1997
L 3816 0
L 2688 0
L 2688 519
Q 2463 200 2181 54
Q 1900 -91 1497 -91
Q 953 -91 614 226
Q 275 544 275 1050
Q 275 1666 698 1953
Q 1122 2241 2028 2241
L 2688 2241
L 2688 2328
Q 2688 2594 2478 2717
Q 2269 2841 1825 2841
Q 1466 2841 1156 2769
Q 847 2697 581 2553
L 581 3406
Q 941 3494 1303 3539
Q 1666 3584 2028 3584
Q 2975 3584 3395 3211
Q 3816 2838 3816 1997
z
" transform="scale(0.015625)"/>
      <path id="DejaVuSans-Bold-72" d="M 3138 2547
Q 2991 2616 2845 2648
Q 2700 2681 2553 2681
Q 2122 2681 1889 2404
Q 1656 2128 1656 1613
L 1656 0
L 538 0
L 538 3500
L 1656 3500
L 1656 2925
Q 1872 3269 2151 3426
Q 2431 3584 2822 3584
Q 2878 3584 2943 3579
Q 3009 3575 3134 3559
L 3138 2547
z
" transform="scale(0.015625)"/>
      <path id="DejaVuSans-Bold-70" d="M 1656 506
L 1656 -1331
L 538 -1331
L 538 3500
L 1656 3500
L 1656 2988
Q 1888 3294 2169 3439
Q 2450 3584 2816 3584
Q 3463 3584 3878 3070
Q 4294 2556 4294 1747
Q 4294 938 3878 423
Q 3463 -91 2816 -91
Q 2450 -91 2169 54
Q 1888 200 1656 506
z
M 2400 2772
Q 2041 2772 1848 2508
Q 1656 2244 1656 1747
Q 1656 1250 1848 986
Q 2041 722 2400 722
Q 2759 722 2948 984
Q 3138 1247 3138 1747
Q 3138 2247 2948 2509
Q 2759 2772 2400 2772
z
" transform="scale(0.015625)"/>
      <path id="DejaVuSans-Bold-43" d="M 4288 256
Q 3956 84 3597 -3
Q 3238 -91 2847 -91
Q 1681 -91 1000 561
Q 319 1213 319 2328
Q 319 3447 1000 4098
Q 1681 4750 2847 4750
Q 3238 4750 3597 4662
Q 3956 4575 4288 4403
L 4288 3438
Q 3953 3666 3628 3772
Q 3303 3878 2944 3878
Q 2300 3878 1931 3465
Q 1563 3053 1563 2328
Q 1563 1606 1931 1193
Q 2300 781 2944 781
Q 3303 781 3628 887
Q 3953 994 4288 1222
L 4288 256
z
" transform="scale(0.015625)"/>
      <path id="DejaVuSans-Bold-6f" d="M 2203 2784
Q 1831 2784 1636 2517
Q 1441 2250 1441 1747
Q 1441 1244 1636 976
Q 1831 709 2203 709
Q 2569 709 2762 976
Q 2956 1244 2956 1747
Q 2956 2250 2762 2517
Q 2569 2784 2203 2784
z
M 2203 3584
Q 3106 3584 3614 3096
Q 4122 2609 4122 1747
Q 4122 884 3614 396
Q 3106 -91 2203 -91
Q 1297 -91 786 396
Q 275 884 275 1747
Q 275 2609 786 3096
Q 1297 3584 2203 3584
z
" transform="scale(0.015625)"/>
      <path id="DejaVuSans-Bold-6e" d="M 4056 2131
L 4056 0
L 2931 0
L 2931 347
L 2931 1631
Q 2931 2084 2911 2256
Q 2891 2428 2841 2509
Q 2775 2619 2662 2680
Q 2550 2741 2406 2741
Q 2056 2741 1856 2470
Q 1656 2200 1656 1722
L 1656 0
L 538 0
L 538 3500
L 1656 3500
L 1656 2988
Q 1909 3294 2193 3439
Q 2478 3584 2822 3584
Q 3428 3584 3742 3212
Q 4056 2841 4056 2131
z
" transform="scale(0.015625)"/>
      <path id="DejaVuSans-Bold-76" d="M 97 3500
L 1216 3500
L 2088 1081
L 2956 3500
L 4078 3500
L 2700 0
L 1472 0
L 97 3500
z
" transform="scale(0.015625)"/>
      <path id="DejaVuSans-Bold-4e" d="M 588 4666
L 1931 4666
L 3628 1466
L 3628 4666
L 4769 4666
L 4769 0
L 3425 0
L 1728 3200
L 1728 0
L 588 0
L 588 4666
z
" transform="scale(0.015625)"/>
      <path id="DejaVuSans-Bold-65" d="M 4031 1759
L 4031 1441
L 1416 1441
Q 1456 1047 1700 850
Q 1944 653 2381 653
Q 2734 653 3104 758
Q 3475 863 3866 1075
L 3866 213
Q 3469 63 3072 -14
Q 2675 -91 2278 -91
Q 1328 -91 801 392
Q 275 875 275 1747
Q 275 2603 792 3093
Q 1309 3584 2216 3584
Q 3041 3584 3536 3087
Q 4031 2591 4031 1759
z
M 2881 2131
Q 2881 2450 2695 2645
Q 2509 2841 2209 2841
Q 1884 2841 1681 2658
Q 1478 2475 1428 2131
L 2881 2131
z
" transform="scale(0.015625)"/>
      <path id="DejaVuSans-Bold-74" d="M 1759 4494
L 1759 3500
L 2913 3500
L 2913 2700
L 1759 2700
L 1759 1216
Q 1759 972 1856 886
Q 1953 800 2241 800
L 2816 800
L 2816 0
L 1856 0
Q 1194 0 917 276
Q 641 553 641 1216
L 641 2700
L 84 2700
L 84 3500
L 641 3500
L 641 4494
L 1759 4494
z
" transform="scale(0.015625)"/>
     </defs>
     <use xlink:href="#DejaVuSans-Bold-57"/>
     <use xlink:href="#DejaVuSans-Bold-61" transform="translate(106.677734 0)"/>
     <use xlink:href="#DejaVuSans-Bold-72" transform="translate(174.158203 0)"/>
     <use xlink:href="#DejaVuSans-Bold-70" transform="translate(223.474609 0)"/>
     <use xlink:href="#DejaVuSans-Bold-43" transform="translate(295.056641 0)"/>
     <use xlink:href="#DejaVuSans-Bold-6f" transform="translate(368.445312 0)"/>
     <use xlink:href="#DejaVuSans-Bold-6e" transform="translate(437.146484 0)"/>
     <use xlink:href="#DejaVuSans-Bold-76" transform="translate(508.337891 0)"/>
     <use xlink:href="#DejaVuSans-Bold-4e" transform="translate(573.523438 0)"/>
     <use xlink:href="#DejaVuSans-Bold-65" transform="translate(657.214844 0)"/>
     <use xlink:href="#DejaVuSans-Bold-74" transform="translate(725.037109 0)"/>
    </g>
   </g>
   <g id="text_2">
    <!-- High-Performance 3D Deep Learning -->
    <g style="fill: #a6f24a" transform="translate(430.700289 158.470875) scale(0.18 -0.18)">
     <defs>
      <path id="DejaVuSans-48" d="M 628 4666
L 1259 4666
L 1259 2753
L 3553 2753
L 3553 4666
L 4184 4666
L 4184 0
L 3553 0
L 3553 2222
L 1259 2222
L 1259 0
L 628 0
L 628 4666
z
" transform="scale(0.015625)"/>
      <path id="DejaVuSans-69" d="M 603 3500
L 1178 3500
L 1178 0
L 603 0
L 603 3500
z
M 603 4863
L 1178 4863
L 1178 4134
L 603 4134
L 603 4863
z
" transform="scale(0.015625)"/>
      <path id="DejaVuSans-67" d="M 2906 1791
Q 2906 2416 2648 2759
Q 2391 3103 1925 3103
Q 1463 3103 1205 2759
Q 947 2416 947 1791
Q 947 1169 1205 825
Q 1463 481 1925 481
Q 2391 481 2648 825
Q 2906 1169 2906 1791
z
M 3481 434
Q 3481 -459 3084 -895
Q 2688 -1331 1869 -1331
Q 1566 -1331 1297 -1286
Q 1028 -1241 775 -1147
L 775 -588
Q 1028 -725 1275 -790
Q 1522 -856 1778 -856
Q 2344 -856 2625 -561
Q 2906 -266 2906 331
L 2906 616
Q 2728 306 2450 153
Q 2172 0 1784 0
Q 1141 0 747 490
Q 353 981 353 1791
Q 353 2603 747 3093
Q 1141 3584 1784 3584
Q 2172 3584 2450 3431
Q 2728 3278 2906 2969
L 2906 3500
L 3481 3500
L 3481 434
z
" transform="scale(0.015625)"/>
      <path id="DejaVuSans-68" d="M 3513 2113
L 3513 0
L 2938 0
L 2938 2094
Q 2938 2591 2744 2837
Q 2550 3084 2163 3084
Q 1697 3084 1428 2787
Q 1159 2491 1159 1978
L 1159 0
L 581 0
L 581 4863
L 1159 4863
L 1159 2956
Q 1366 3272 1645 3428
Q 1925 3584 2291 3584
Q 2894 3584 3203 3211
Q 3513 2838 3513 2113
z
" transform="scale(0.015625)"/>
      <path id="DejaVuSans-2d" d="M 313 2009
L 1997 2009
L 1997 1497
L 313 1497
L 313 2009
z
" transform="scale(0.015625)"/>
      <path id="DejaVuSans-50" d="M 1259 4147
L 1259 2394
L 2053 2394
Q 2494 2394 2734 2622
Q 2975 2850 2975 3272
Q 2975 3691 2734 3919
Q 2494 4147 2053 4147
L 1259 4147
z
M 628 4666
L 2053 4666
Q 2838 4666 3239 4311
Q 3641 3956 3641 3272
Q 3641 2581 3239 2228
Q 2838 1875 2053 1875
L 1259 1875
L 1259 0
L 628 0
L 628 4666
z
" transform="scale(0.015625)"/>
      <path id="DejaVuSans-65" d="M 3597 1894
L 3597 1613
L 953 1613
Q 991 1019 1311 708
Q 1631 397 2203 397
Q 2534 397 2845 478
Q 3156 559 3463 722
L 3463 178
Q 3153 47 2828 -22
Q 2503 -91 2169 -91
Q 1331 -91 842 396
Q 353 884 353 1716
Q 353 2575 817 3079
Q 1281 3584 2069 3584
Q 2775 3584 3186 3129
Q 3597 2675 3597 1894
z
M 3022 2063
Q 3016 2534 2758 2815
Q 2500 3097 2075 3097
Q 1594 3097 1305 2825
Q 1016 2553 972 2059
L 3022 2063
z
" transform="scale(0.015625)"/>
      <path id="DejaVuSans-72" d="M 2631 2963
Q 2534 3019 2420 3045
Q 2306 3072 2169 3072
Q 1681 3072 1420 2755
Q 1159 2438 1159 1844
L 1159 0
L 581 0
L 581 3500
L 1159 3500
L 1159 2956
Q 1341 3275 1631 3429
Q 1922 3584 2338 3584
Q 2397 3584 2469 3576
Q 2541 3569 2628 3553
L 2631 2963
z
" transform="scale(0.015625)"/>
      <path id="DejaVuSans-66" d="M 2375 4863
L 2375 4384
L 1825 4384
Q 1516 4384 1395 4259
Q 1275 4134 1275 3809
L 1275 3500
L 2222 3500
L 2222 3053
L 1275 3053
L 1275 0
L 697 0
L 697 3053
L 147 3053
L 147 3500
L 697 3500
L 697 3744
Q 697 4328 969 4595
Q 1241 4863 1831 4863
L 2375 4863
z
" transform="scale(0.015625)"/>
      <path id="DejaVuSans-6f" d="M 1959 3097
Q 1497 3097 1228 2736
Q 959 2375 959 1747
Q 959 1119 1226 758
Q 1494 397 1959 397
Q 2419 397 2687 759
Q 2956 1122 2956 1747
Q 2956 2369 2687 2733
Q 2419 3097 1959 3097
z
M 1959 3584
Q 2709 3584 3137 3096
Q 3566 2609 3566 1747
Q 3566 888 3137 398
Q 2709 -91 1959 -91
Q 1206 -91 779 398
Q 353 888 353 1747
Q 353 2609 779 3096
Q 1206 3584 1959 3584
z
" transform="scale(0.015625)"/>
      <path id="DejaVuSans-6d" d="M 3328 2828
Q 3544 3216 3844 3400
Q 4144 3584 4550 3584
Q 5097 3584 5394 3201
Q 5691 2819 5691 2113
L 5691 0
L 5113 0
L 5113 2094
Q 5113 2597 4934 2840
Q 4756 3084 4391 3084
Q 3944 3084 3684 2787
Q 3425 2491 3425 1978
L 3425 0
L 2847 0
L 2847 2094
Q 2847 2600 2669 2842
Q 2491 3084 2119 3084
Q 1678 3084 1418 2786
Q 1159 2488 1159 1978
L 1159 0
L 581 0
L 581 3500
L 1159 3500
L 1159 2956
Q 1356 3278 1631 3431
Q 1906 3584 2284 3584
Q 2666 3584 2933 3390
Q 3200 3197 3328 2828
z
" transform="scale(0.015625)"/>
      <path id="DejaVuSans-61" d="M 2194 1759
Q 1497 1759 1228 1600
Q 959 1441 959 1056
Q 959 750 1161 570
Q 1363 391 1709 391
Q 2188 391 2477 730
Q 2766 1069 2766 1631
L 2766 1759
L 2194 1759
z
M 3341 1997
L 3341 0
L 2766 0
L 2766 531
Q 2569 213 2275 61
Q 1981 -91 1556 -91
Q 1019 -91 701 211
Q 384 513 384 1019
Q 384 1609 779 1909
Q 1175 2209 1959 2209
L 2766 2209
L 2766 2266
Q 2766 2663 2505 2880
Q 2244 3097 1772 3097
Q 1472 3097 1187 3025
Q 903 2953 641 2809
L 641 3341
Q 956 3463 1253 3523
Q 1550 3584 1831 3584
Q 2591 3584 2966 3190
Q 3341 2797 3341 1997
z
" transform="scale(0.015625)"/>
      <path id="DejaVuSans-6e" d="M 3513 2113
L 3513 0
L 2938 0
L 2938 2094
Q 2938 2591 2744 2837
Q 2550 3084 2163 3084
Q 1697 3084 1428 2787
Q 1159 2491 1159 1978
L 1159 0
L 581 0
L 581 3500
L 1159 3500
L 1159 2956
Q 1366 3272 1645 3428
Q 1925 3584 2291 3584
Q 2894 3584 3203 3211
Q 3513 2838 3513 2113
z
" transform="scale(0.015625)"/>
      <path id="DejaVuSans-63" d="M 3122 3366
L 3122 2828
Q 2878 2963 2633 3030
Q 2388 3097 2138 3097
Q 1578 3097 1268 2742
Q 959 2388 959 1747
Q 959 1106 1268 751
Q 1578 397 2138 397
Q 2388 397 2633 464
Q 2878 531 3122 666
L 3122 134
Q 2881 22 2623 -34
Q 2366 -91 2075 -91
Q 1284 -91 818 406
Q 353 903 353 1747
Q 353 2603 823 3093
Q 1294 3584 2113 3584
Q 2378 3584 2631 3529
Q 2884 3475 3122 3366
z
" transform="scale(0.015625)"/>
      <path id="DejaVuSans-20" transform="scale(0.015625)"/>
      <path id="DejaVuSans-33" d="M 2597 2516
Q 3050 2419 3304 2112
Q 3559 1806 3559 1356
Q 3559 666 3084 287
Q 2609 -91 1734 -91
Q 1441 -91 1130 -33
Q 819 25 488 141
L 488 750
Q 750 597 1062 519
Q 1375 441 1716 441
Q 2309 441 2620 675
Q 2931 909 2931 1356
Q 2931 1769 2642 2001
Q 2353 2234 1838 2234
L 1294 2234
L 1294 2753
L 1863 2753
Q 2328 2753 2575 2939
Q 2822 3125 2822 3475
Q 2822 3834 2567 4026
Q 2313 4219 1838 4219
Q 1578 4219 1281 4162
Q 984 4106 628 3988
L 628 4550
Q 988 4650 1302 4700
Q 1616 4750 1894 4750
Q 2613 4750 3031 4423
Q 3450 4097 3450 3541
Q 3450 3153 3228 2886
Q 3006 2619 2597 2516
z
" transform="scale(0.015625)"/>
      <path id="DejaVuSans-44" d="M 1259 4147
L 1259 519
L 2022 519
Q 2988 519 3436 956
Q 3884 1394 3884 2338
Q 3884 3275 3436 3711
Q 2988 4147 2022 4147
L 1259 4147
z
M 628 4666
L 1925 4666
Q 3281 4666 3915 4102
Q 4550 3538 4550 2338
Q 4550 1131 3912 565
Q 3275 0 1925 0
L 628 0
L 628 4666
z
" transform="scale(0.015625)"/>
      <path id="DejaVuSans-70" d="M 1159 525
L 1159 -1331
L 581 -1331
L 581 3500
L 1159 3500
L 1159 2969
Q 1341 3281 1617 3432
Q 1894 3584 2278 3584
Q 2916 3584 3314 3078
Q 3713 2572 3713 1747
Q 3713 922 3314 415
Q 2916 -91 2278 -91
Q 1894 -91 1617 61
Q 1341 213 1159 525
z
M 3116 1747
Q 3116 2381 2855 2742
Q 2594 3103 2138 3103
Q 1681 3103 1420 2742
Q 1159 2381 1159 1747
Q 1159 1113 1420 752
Q 1681 391 2138 391
Q 2594 391 2855 752
Q 3116 1113 3116 1747
z
" transform="scale(0.015625)"/>
      <path id="DejaVuSans-4c" d="M 628 4666
L 1259 4666
L 1259 531
L 3531 531
L 3531 0
L 628 0
L 628 4666
z
" transform="scale(0.015625)"/>
     </defs>
     <use xlink:href="#DejaVuSans-48"/>
     <use xlink:href="#DejaVuSans-69" transform="translate(75.195312 0)"/>
     <use xlink:href="#DejaVuSans-67" transform="translate(102.978516 0)"/>
     <use xlink:href="#DejaVuSans-68" transform="translate(166.455078 0)"/>
     <use xlink:href="#DejaVuSans-2d" transform="translate(229.833984 0)"/>
     <use xlink:href="#DejaVuSans-50" transform="translate(265.917969 0)"/>
     <use xlink:href="#DejaVuSans-65" transform="translate(322.595703 0)"/>
     <use xlink:href="#DejaVuSans-72" transform="translate(384.119141 0)"/>
     <use xlink:href="#DejaVuSans-66" transform="translate(425.232422 0)"/>
     <use xlink:href="#DejaVuSans-6f" transform="translate(460.4375 0)"/>
     <use xlink:href="#DejaVuSans-72" transform="translate(521.619141 0)"/>
     <use xlink:href="#DejaVuSans-6d" transform="translate(560.982422 0)"/>
     <use xlink:href="#DejaVuSans-61" transform="translate(658.394531 0)"/>
     <use xlink:href="#DejaVuSans-6e" transform="translate(719.673828 0)"/>
     <use xlink:href="#DejaVuSans-63" transform="translate(783.052734 0)"/>
     <use xlink:href="#DejaVuSans-65" transform="translate(838.033203 0)"/>
     <use xlink:href="#DejaVuSans-20" transform="translate(899.556641 0)"/>
     <use xlink:href="#DejaVuSans-33" transform="translate(931.34375 0)"/>
     <use xlink:href="#DejaVuSans-44" transform="translate(994.966797 0)"/>
     <use xlink:href="#DejaVuSans-20" transform="translate(1071.96875 0)"/>
     <use xlink:href="#DejaVuSans-44" transform="translate(1103.755859 0)"/>
     <use xlink:href="#DejaVuSans-65" transform="translate(1180.757812 0)"/>
     <use xlink:href="#DejaVuSans-65" transform="translate(1242.28125 0)"/>
     <use xlink:href="#DejaVuSans-70" transform="translate(1303.804688 0)"/>
     <use xlink:href="#DejaVuSans-20" transform="translate(1367.28125 0)"/>
     <use xlink:href="#DejaVuSans-4c" transform="translate(1399.068359 0)"/>
     <use xlink:href="#DejaVuSans-65" transform="translate(1453.03125 0)"/>
     <use xlink:href="#DejaVuSans-61" transform="translate(1514.554688 0)"/>
     <use xlink:href="#DejaVuSans-72" transform="translate(1575.833984 0)"/>
     <use xlink:href="#DejaVuSans-6e" transform="translate(1615.197266 0)"/>
     <use xlink:href="#DejaVuSans-69" transform="translate(1678.576172 0)"/>
     <use xlink:href="#DejaVuSans-6e" transform="translate(1706.359375 0)"/>
     <use xlink:href="#DejaVuSans-67" transform="translate(1769.738281 0)"/>
    </g>
   </g>
   <g id="text_3">
    <!-- Point Clouds  ·  Sparse Voxels  ·  CUDA -->
    <g style="fill: #8aa0c0" transform="translate(430.700289 193.67925) scale(0.12 -0.12)">
     <defs>
      <path id="DejaVuSans-74" d="M 1172 4494
L 1172 3500
L 2356 3500
L 2356 3053
L 1172 3053
L 1172 1153
Q 1172 725 1289 603
Q 1406 481 1766 481
L 2356 481
L 2356 0
L 1766 0
Q 1100 0 847 248
Q 594 497 594 1153
L 594 3053
L 172 3053
L 172 3500
L 594 3500
L 594 4494
L 1172 4494
z
" transform="scale(0.015625)"/>
      <path id="DejaVuSans-43" d="M 4122 4306
L 4122 3641
Q 3803 3938 3442 4084
Q 3081 4231 2675 4231
Q 1875 4231 1450 3742
Q 1025 3253 1025 2328
Q 1025 1406 1450 917
Q 1875 428 2675 428
Q 3081 428 3442 575
Q 3803 722 4122 1019
L 4122 359
Q 3791 134 3420 21
Q 3050 -91 2638 -91
Q 1578 -91 968 557
Q 359 1206 359 2328
Q 359 3453 968 4101
Q 1578 4750 2638 4750
Q 3056 4750 3426 4639
Q 3797 4528 4122 4306
z
" transform="scale(0.015625)"/>
      <path id="DejaVuSans-6c" d="M 603 4863
L 1178 4863
L 1178 0
L 603 0
L 603 4863
z
" transform="scale(0.015625)"/>
      <path id="DejaVuSans-75" d="M 544 1381
L 544 3500
L 1119 3500
L 1119 1403
Q 1119 906 1312 657
Q 1506 409 1894 409
Q 2359 409 2629 706
Q 2900 1003 2900 1516
L 2900 3500
L 3475 3500
L 3475 0
L 2900 0
L 2900 538
Q 2691 219 2414 64
Q 2138 -91 1772 -91
Q 1169 -91 856 284
Q 544 659 544 1381
z
M 1991 3584
L 1991 3584
z
" transform="scale(0.015625)"/>
      <path id="DejaVuSans-64" d="M 2906 2969
L 2906 4863
L 3481 4863
L 3481 0
L 2906 0
L 2906 525
Q 2725 213 2448 61
Q 2172 -91 1784 -91
Q 1150 -91 751 415
Q 353 922 353 1747
Q 353 2572 751 3078
Q 1150 3584 1784 3584
Q 2172 3584 2448 3432
Q 2725 3281 2906 2969
z
M 947 1747
Q 947 1113 1208 752
Q 1469 391 1925 391
Q 2381 391 2643 752
Q 2906 1113 2906 1747
Q 2906 2381 2643 2742
Q 2381 3103 1925 3103
Q 1469 3103 1208 2742
Q 947 2381 947 1747
z
" transform="scale(0.015625)"/>
      <path id="DejaVuSans-73" d="M 2834 3397
L 2834 2853
Q 2591 2978 2328 3040
Q 2066 3103 1784 3103
Q 1356 3103 1142 2972
Q 928 2841 928 2578
Q 928 2378 1081 2264
Q 1234 2150 1697 2047
L 1894 2003
Q 2506 1872 2764 1633
Q 3022 1394 3022 966
Q 3022 478 2636 193
Q 2250 -91 1575 -91
Q 1294 -91 989 -36
Q 684 19 347 128
L 347 722
Q 666 556 975 473
Q 1284 391 1588 391
Q 1994 391 2212 530
Q 2431 669 2431 922
Q 2431 1156 2273 1281
Q 2116 1406 1581 1522
L 1381 1569
Q 847 1681 609 1914
Q 372 2147 372 2553
Q 372 3047 722 3315
Q 1072 3584 1716 3584
Q 2034 3584 2315 3537
Q 2597 3491 2834 3397
z
" transform="scale(0.015625)"/>
      <path id="DejaVuSans-b7" d="M 684 2619
L 1344 2619
L 1344 1825
L 684 1825
L 684 2619
z
" transform="scale(0.015625)"/>
      <path id="DejaVuSans-53" d="M 3425 4513
L 3425 3897
Q 3066 4069 2747 4153
Q 2428 4238 2131 4238
Q 1616 4238 1336 4038
Q 1056 3838 1056 3469
Q 1056 3159 1242 3001
Q 1428 2844 1947 2747
L 2328 2669
Q 3034 2534 3370 2195
Q 3706 1856 3706 1288
Q 3706 609 3251 259
Q 2797 -91 1919 -91
Q 1588 -91 1214 -16
Q 841 59 441 206
L 441 856
Q 825 641 1194 531
Q 1563 422 1919 422
Q 2459 422 2753 634
Q 3047 847 3047 1241
Q 3047 1584 2836 1778
Q 2625 1972 2144 2069
L 1759 2144
Q 1053 2284 737 2584
Q 422 2884 422 3419
Q 422 4038 858 4394
Q 1294 4750 2059 4750
Q 2388 4750 2728 4690
Q 3069 4631 3425 4513
z
" transform="scale(0.015625)"/>
      <path id="DejaVuSans-56" d="M 1831 0
L 50 4666
L 709 4666
L 2188 738
L 3669 4666
L 4325 4666
L 2547 0
L 1831 0
z
" transform="scale(0.015625)"/>
      <path id="DejaVuSans-78" d="M 3513 3500
L 2247 1797
L 3578 0
L 2900 0
L 1881 1375
L 863 0
L 184 0
L 1544 1831
L 300 3500
L 978 3500
L 1906 2253
L 2834 3500
L 3513 3500
z
" transform="scale(0.015625)"/>
      <path id="DejaVuSans-55" d="M 556 4666
L 1191 4666
L 1191 1831
Q 1191 1081 1462 751
Q 1734 422 2344 422
Q 2950 422 3222 751
Q 3494 1081 3494 1831
L 3494 4666
L 4128 4666
L 4128 1753
Q 4128 841 3676 375
Q 3225 -91 2344 -91
Q 1459 -91 1007 375
Q 556 841 556 1753
L 556 4666
z
" transform="scale(0.015625)"/>
      <path id="DejaVuSans-41" d="M 2188 4044
L 1331 1722
L 3047 1722
L 2188 4044
z
M 1831 4666
L 2547 4666
L 4325 0
L 3669 0
L 3244 1197
L 1141 1197
L 716 0
L 50 0
L 1831 4666
z
" transform="scale(0.015625)"/>
     </defs>
     <use xlink:href="#DejaVuSans-50"/>
     <use xlink:href="#DejaVuSans-6f" transform="translate(56.677734 0)"/>
     <use xlink:href="#DejaVuSans-69" transform="translate(117.859375 0)"/>
     <use xlink:href="#DejaVuSans-6e" transform="translate(145.642578 0)"/>
     <use xlink:href="#DejaVuSans-74" transform="translate(209.021484 0)"/>
     <use xlink:href="#DejaVuSans-20" transform="translate(248.230469 0)"/>
     <use xlink:href="#DejaVuSans-43" transform="translate(280.017578 0)"/>
     <use xlink:href="#DejaVuSans-6c" transform="translate(349.841797 0)"/>
     <use xlink:href="#DejaVuSans-6f" transform="translate(377.625 0)"/>
     <use xlink:href="#DejaVuSans-75" transform="translate(438.806641 0)"/>
     <use xlink:href="#DejaVuSans-64" transform="translate(502.185547 0)"/>
     <use xlink:href="#DejaVuSans-73" transform="translate(565.662109 0)"/>
     <use xlink:href="#DejaVuSans-20" transform="translate(617.761719 0)"/>
     <use xlink:href="#DejaVuSans-20" transform="translate(649.548828 0)"/>
     <use xlink:href="#DejaVuSans-b7" transform="translate(681.335938 0)"/>
     <use xlink:href="#DejaVuSans-20" transform="translate(713.123047 0)"/>
     <use xlink:href="#DejaVuSans-20" transform="translate(744.910156 0)"/>
     <use xlink:href="#DejaVuSans-53" transform="translate(776.697266 0)"/>
     <use xlink:href="#DejaVuSans-70" transform="translate(840.173828 0)"/>
     <use xlink:href="#DejaVuSans-61" transform="translate(903.650391 0)"/>
     <use xlink:href="#DejaVuSans-72" transform="translate(964.929688 0)"/>
     <use xlink:href="#DejaVuSans-73" transform="translate(1006.042969 0)"/>
     <use xlink:href="#DejaVuSans-65" transform="translate(1058.142578 0)"/>
     <use xlink:href="#DejaVuSans-20" transform="translate(1119.666016 0)"/>
     <use xlink:href="#DejaVuSans-56" transform="translate(1151.453125 0)"/>
     <use xlink:href="#DejaVuSans-6f" transform="translate(1212.111328 0)"/>
     <use xlink:href="#DejaVuSans-78" transform="translate(1270.167969 0)"/>
     <use xlink:href="#DejaVuSans-65" transform="translate(1326.222656 0)"/>
     <use xlink:href="#DejaVuSans-6c" transform="translate(1387.746094 0)"/>
     <use xlink:href="#DejaVuSans-73" transform="translate(1415.529297 0)"/>
     <use xlink:href="#DejaVuSans-20" transform="translate(1467.628906 0)"/>
     <use xlink:href="#DejaVuSans-20" transform="translate(1499.416016 0)"/>
     <use xlink:href="#DejaVuSans-b7" transform="translate(1531.203125 0)"/>
     <use xlink:href="#DejaVuSans-20" transform="translate(1562.990234 0)"/>
     <use xlink:href="#DejaVuSans-20" transform="translate(1594.777344 0)"/>
     <use xlink:href="#DejaVuSans-43" transform="translate(1626.564453 0)"/>
     <use xlink:href="#DejaVuSans-55" transform="translate(1696.388672 0)"/>
     <use xlink:href="#DejaVuSans-44" transform="translate(1769.582031 0)"/>
     <use xlink:href="#DejaVuSans-41" transform="translate(1844.833984 0)"/>
    </g>
   </g>
  </g>
 </g>
 <defs>
  <clipPath id="p9f266818fa">
   <rect x="1.44" y="1.44" width="921.6" height="230.4"/>
  </clipPath>
 </defs>
</svg>
